<svg xmlns="http://www.w3.org/2000/svg" xmlns:xlink="http://www.w3.org/1999/xlink" width="500" zoomAndPan="magnify" viewBox="0 0 375 374.999991" height="500" preserveAspectRatio="xMidYMid meet" version="1.0"><defs><g/><clipPath id="fe8f8cd19d"><rect x="0" width="291" y="0" height="64"/></clipPath><clipPath id="e4a2a46a0e"><path d="M 204.859375 187.5 L 241.609375 187.5 L 241.609375 225 L 204.859375 225 Z M 204.859375 187.5 " clip-rule="nonzero"/></clipPath><clipPath id="807174317c"><path d="M 138 172 L 215 172 L 215 187 L 138 187 Z M 138 172 " clip-rule="nonzero"/></clipPath><clipPath id="1d16da5a3c"><path d="M 214.527344 167.382812 L 214.867188 185.378906 L 138.378906 186.832031 L 138.039062 168.835938 Z M 214.527344 167.382812 " clip-rule="nonzero"/></clipPath><clipPath id="fb12926b29"><path d="M 214.527344 167.382812 L 214.867188 185.378906 L 138.378906 186.832031 L 138.039062 168.835938 Z M 214.527344 167.382812 " clip-rule="nonzero"/></clipPath><clipPath id="225d0d3bd3"><rect x="0" width="283" y="0" height="18"/></clipPath></defs><rect x="-37.5" width="450" fill="#ffffff" y="-37.499999" height="449.999989" fill-opacity="1"/><rect x="-37.5" width="450" fill="#ffffff" y="-37.499999" height="449.999989" fill-opacity="1"/><g transform="matrix(1, 0, 0, 1, 48, 170)"><g clip-path="url(#fe8f8cd19d)"><g fill="#1a08a7" fill-opacity="1"><g transform="translate(0.71223, 50.575181)"><g><path d="M 11.546875 -38.6875 L 11.546875 0 L 3.359375 0 L 3.359375 -38.6875 Z M 11.546875 -38.6875 "/></g></g></g><g fill="#1a08a7" fill-opacity="1"><g transform="translate(15.636689, 50.575181)"><g><path d="M 11.265625 -16.78125 L 11.265625 0 L 3.21875 0 L 3.21875 -29.015625 L 10.875 -29.015625 L 10.875 -23.90625 L 11.21875 -23.90625 C 11.875 -25.59375 12.953125 -26.925781 14.453125 -27.90625 C 15.960938 -28.894531 17.796875 -29.390625 19.953125 -29.390625 C 22.972656 -29.390625 25.394531 -28.414062 27.21875 -26.46875 C 29.050781 -24.53125 29.96875 -21.867188 29.96875 -18.484375 L 29.96875 0 L 21.921875 0 L 21.921875 -17.046875 C 21.929688 -18.816406 21.472656 -20.203125 20.546875 -21.203125 C 19.628906 -22.203125 18.367188 -22.703125 16.765625 -22.703125 C 15.140625 -22.703125 13.816406 -22.179688 12.796875 -21.140625 C 11.785156 -20.109375 11.273438 -18.65625 11.265625 -16.78125 Z M 11.265625 -16.78125 "/></g></g></g><g fill="#1a08a7" fill-opacity="1"><g transform="translate(48.716089, 50.575181)"><g><path d="M 19.078125 -29.015625 L 19.078125 -22.96875 L 13.3125 -22.96875 L 13.3125 0 L 5.265625 0 L 5.265625 -22.96875 L 1.171875 -22.96875 L 1.171875 -29.015625 L 5.265625 -29.015625 L 5.265625 -31.109375 C 5.265625 -34.273438 6.164062 -36.628906 7.96875 -38.171875 C 9.78125 -39.722656 12.054688 -40.5 14.796875 -40.5 C 16.023438 -40.5 17.148438 -40.40625 18.171875 -40.21875 C 19.203125 -40.03125 19.972656 -39.863281 20.484375 -39.71875 L 19.0625 -33.671875 C 18.75 -33.765625 18.359375 -33.851562 17.890625 -33.9375 C 17.421875 -34.03125 16.945312 -34.078125 16.46875 -34.078125 C 15.289062 -34.078125 14.46875 -33.800781 14 -33.25 C 13.539062 -32.707031 13.3125 -31.945312 13.3125 -30.96875 L 13.3125 -29.015625 Z M 19.078125 -29.015625 "/></g></g></g><g fill="#1a08a7" fill-opacity="1"><g transform="translate(68.476797, 50.575181)"><g><path d="M 16.328125 0.5625 C 13.390625 0.5625 10.851562 -0.0625 8.71875 -1.3125 C 6.582031 -2.5625 4.9375 -4.3125 3.78125 -6.5625 C 2.625 -8.8125 2.046875 -11.421875 2.046875 -14.390625 C 2.046875 -17.390625 2.625 -20.015625 3.78125 -22.265625 C 4.9375 -24.515625 6.582031 -26.265625 8.71875 -27.515625 C 10.851562 -28.765625 13.390625 -29.390625 16.328125 -29.390625 C 19.253906 -29.390625 21.785156 -28.765625 23.921875 -27.515625 C 26.054688 -26.265625 27.703125 -24.515625 28.859375 -22.265625 C 30.023438 -20.015625 30.609375 -17.390625 30.609375 -14.390625 C 30.609375 -11.421875 30.023438 -8.8125 28.859375 -6.5625 C 27.703125 -4.3125 26.054688 -2.5625 23.921875 -1.3125 C 21.785156 -0.0625 19.253906 0.5625 16.328125 0.5625 Z M 16.359375 -5.671875 C 18.347656 -5.671875 19.851562 -6.5 20.875 -8.15625 C 21.90625 -9.820312 22.421875 -11.921875 22.421875 -14.453125 C 22.421875 -16.984375 21.90625 -19.082031 20.875 -20.75 C 19.851562 -22.414062 18.347656 -23.25 16.359375 -23.25 C 14.328125 -23.25 12.796875 -22.414062 11.765625 -20.75 C 10.734375 -19.082031 10.21875 -16.984375 10.21875 -14.453125 C 10.21875 -11.921875 10.734375 -9.820312 11.765625 -8.15625 C 12.796875 -6.5 14.328125 -5.671875 16.359375 -5.671875 Z M 16.359375 -5.671875 "/></g></g></g><g fill="#1a08a7" fill-opacity="1"><g transform="translate(101.121691, 50.575181)"><g><path d="M 3.21875 10.875 L 3.21875 -29.015625 L 11.140625 -29.015625 L 11.140625 -24.140625 L 11.5 -24.140625 C 11.863281 -24.929688 12.378906 -25.726562 13.046875 -26.53125 C 13.722656 -27.34375 14.609375 -28.019531 15.703125 -28.5625 C 16.796875 -29.113281 18.148438 -29.390625 19.765625 -29.390625 C 21.890625 -29.390625 23.835938 -28.835938 25.609375 -27.734375 C 27.390625 -26.640625 28.816406 -24.984375 29.890625 -22.765625 C 30.972656 -20.554688 31.515625 -17.789062 31.515625 -14.46875 C 31.515625 -11.226562 30.988281 -8.5 29.9375 -6.28125 C 28.894531 -4.0625 27.484375 -2.378906 25.703125 -1.234375 C 23.929688 -0.0976562 21.945312 0.46875 19.75 0.46875 C 18.1875 0.46875 16.859375 0.210938 15.765625 -0.296875 C 14.671875 -0.816406 13.78125 -1.46875 13.09375 -2.25 C 12.414062 -3.039062 11.882812 -3.835938 11.5 -4.640625 L 11.265625 -4.640625 L 11.265625 10.875 Z M 11.09375 -14.515625 C 11.09375 -11.929688 11.625 -9.851562 12.6875 -8.28125 C 13.75 -6.71875 15.25 -5.9375 17.1875 -5.9375 C 19.164062 -5.9375 20.675781 -6.734375 21.71875 -8.328125 C 22.769531 -9.921875 23.296875 -11.984375 23.296875 -14.515625 C 23.296875 -17.023438 22.773438 -19.066406 21.734375 -20.640625 C 20.691406 -22.210938 19.175781 -23 17.1875 -23 C 15.238281 -23 13.734375 -22.234375 12.671875 -20.703125 C 11.617188 -19.171875 11.09375 -17.109375 11.09375 -14.515625 Z M 11.09375 -14.515625 "/></g></g></g><g fill="#1a08a7" fill-opacity="1"><g transform="translate(134.767845, 50.575181)"><g><path d="M 3.21875 0 L 3.21875 -29.015625 L 11.015625 -29.015625 L 11.015625 -23.953125 L 11.3125 -23.953125 C 11.84375 -25.753906 12.726562 -27.117188 13.96875 -28.046875 C 15.207031 -28.972656 16.644531 -29.4375 18.28125 -29.4375 C 19.0625 -29.4375 19.785156 -29.34375 20.453125 -29.15625 C 21.128906 -28.96875 21.726562 -28.707031 22.25 -28.375 L 19.84375 -21.734375 C 19.457031 -21.921875 19.039062 -22.078125 18.59375 -22.203125 C 18.144531 -22.335938 17.644531 -22.40625 17.09375 -22.40625 C 15.46875 -22.40625 14.09375 -21.847656 12.96875 -20.734375 C 11.84375 -19.628906 11.273438 -18.191406 11.265625 -16.421875 L 11.265625 0 Z M 3.21875 0 "/></g></g></g><g fill="#1a08a7" fill-opacity="1"><g transform="translate(157.581368, 50.575181)"><g/></g></g><g fill="#1a08a7" fill-opacity="1"><g transform="translate(169.917658, 50.575181)"><g/></g></g><g fill="#1a08a7" fill-opacity="1"><g transform="translate(182.253949, 50.575181)"><g/></g></g><g fill="#1a08a7" fill-opacity="1"><g transform="translate(194.600868, 50.575181)"><g><path d="M 3.21875 10.875 L 3.21875 -29.015625 L 11.140625 -29.015625 L 11.140625 -24.140625 L 11.5 -24.140625 C 11.863281 -24.929688 12.378906 -25.726562 13.046875 -26.53125 C 13.722656 -27.34375 14.609375 -28.019531 15.703125 -28.5625 C 16.796875 -29.113281 18.148438 -29.390625 19.765625 -29.390625 C 21.890625 -29.390625 23.835938 -28.835938 25.609375 -27.734375 C 27.390625 -26.640625 28.816406 -24.984375 29.890625 -22.765625 C 30.972656 -20.554688 31.515625 -17.789062 31.515625 -14.46875 C 31.515625 -11.226562 30.988281 -8.5 29.9375 -6.28125 C 28.894531 -4.0625 27.484375 -2.378906 25.703125 -1.234375 C 23.929688 -0.0976562 21.945312 0.46875 19.75 0.46875 C 18.1875 0.46875 16.859375 0.210938 15.765625 -0.296875 C 14.671875 -0.816406 13.78125 -1.46875 13.09375 -2.25 C 12.414062 -3.039062 11.882812 -3.835938 11.5 -4.640625 L 11.265625 -4.640625 L 11.265625 10.875 Z M 11.09375 -14.515625 C 11.09375 -11.929688 11.625 -9.851562 12.6875 -8.28125 C 13.75 -6.71875 15.25 -5.9375 17.1875 -5.9375 C 19.164062 -5.9375 20.675781 -6.734375 21.71875 -8.328125 C 22.769531 -9.921875 23.296875 -11.984375 23.296875 -14.515625 C 23.296875 -17.023438 22.773438 -19.066406 21.734375 -20.640625 C 20.691406 -22.210938 19.175781 -23 17.1875 -23 C 15.238281 -23 13.734375 -22.234375 12.671875 -20.703125 C 11.617188 -19.171875 11.09375 -17.109375 11.09375 -14.515625 Z M 11.09375 -14.515625 "/></g></g></g><g fill="#1a08a7" fill-opacity="1"><g transform="translate(228.247023, 50.575181)"><g><path d="M 7.921875 0.484375 C 6.671875 0.484375 5.597656 0.046875 4.703125 -0.828125 C 3.804688 -1.710938 3.363281 -2.785156 3.375 -4.046875 C 3.363281 -5.273438 3.804688 -6.332031 4.703125 -7.21875 C 5.597656 -8.101562 6.671875 -8.546875 7.921875 -8.546875 C 9.128906 -8.546875 10.179688 -8.101562 11.078125 -7.21875 C 11.984375 -6.332031 12.441406 -5.273438 12.453125 -4.046875 C 12.441406 -2.785156 11.984375 -1.710938 11.078125 -0.828125 C 10.179688 0.046875 9.128906 0.484375 7.921875 0.484375 Z M 7.921875 0.484375 "/></g></g></g><g fill="#1a08a7" fill-opacity="1"><g transform="translate(244.078292, 50.575181)"><g><path d="M 11.484375 0.546875 C 8.710938 0.546875 6.410156 -0.175781 4.578125 -1.625 C 2.753906 -3.070312 1.84375 -5.234375 1.84375 -8.109375 C 1.84375 -10.273438 2.351562 -11.972656 3.375 -13.203125 C 4.394531 -14.441406 5.734375 -15.347656 7.390625 -15.921875 C 9.046875 -16.492188 10.832031 -16.867188 12.75 -17.046875 C 15.269531 -17.296875 17.070312 -17.554688 18.15625 -17.828125 C 19.238281 -18.109375 19.78125 -18.71875 19.78125 -19.65625 L 19.78125 -19.765625 C 19.78125 -20.960938 19.40625 -21.882812 18.65625 -22.53125 C 17.90625 -23.1875 16.84375 -23.515625 15.46875 -23.515625 C 14.019531 -23.515625 12.867188 -23.195312 12.015625 -22.5625 C 11.160156 -21.9375 10.59375 -21.140625 10.3125 -20.171875 L 2.875 -20.78125 C 3.425781 -23.425781 4.800781 -25.519531 7 -27.0625 C 9.195312 -28.613281 12.035156 -29.390625 15.515625 -29.390625 C 17.660156 -29.390625 19.671875 -29.050781 21.546875 -28.375 C 23.429688 -27.695312 24.945312 -26.632812 26.09375 -25.1875 C 27.25 -23.75 27.828125 -21.878906 27.828125 -19.578125 L 27.828125 0 L 20.203125 0 L 20.203125 -4.03125 L 19.96875 -4.03125 C 19.257812 -2.675781 18.203125 -1.570312 16.796875 -0.71875 C 15.398438 0.125 13.628906 0.546875 11.484375 0.546875 Z M 13.796875 -5 C 15.554688 -5 17.003906 -5.515625 18.140625 -6.546875 C 19.273438 -7.578125 19.84375 -8.851562 19.84375 -10.375 L 19.84375 -13.453125 C 19.519531 -13.234375 19.023438 -13.039062 18.359375 -12.875 C 17.703125 -12.71875 17 -12.578125 16.25 -12.453125 C 15.507812 -12.335938 14.84375 -12.234375 14.25 -12.140625 C 12.832031 -11.941406 11.691406 -11.546875 10.828125 -10.953125 C 9.972656 -10.359375 9.546875 -9.5 9.546875 -8.375 C 9.546875 -7.257812 9.941406 -6.414062 10.734375 -5.84375 C 11.535156 -5.28125 12.554688 -5 13.796875 -5 Z M 13.796875 -5 "/></g></g></g><g fill="#1a08a7" fill-opacity="1"><g transform="translate(274.947361, 50.575181)"><g><path d="M 3.21875 0 L 3.21875 -29.015625 L 11.265625 -29.015625 L 11.265625 0 Z M 7.265625 -32.765625 C 6.078125 -32.765625 5.054688 -33.160156 4.203125 -33.953125 C 3.347656 -34.753906 2.921875 -35.71875 2.921875 -36.84375 C 2.921875 -37.957031 3.347656 -38.910156 4.203125 -39.703125 C 5.054688 -40.503906 6.078125 -40.90625 7.265625 -40.90625 C 8.460938 -40.90625 9.488281 -40.503906 10.34375 -39.703125 C 11.195312 -38.910156 11.625 -37.957031 11.625 -36.84375 C 11.625 -35.71875 11.195312 -34.753906 10.34375 -33.953125 C 9.488281 -33.160156 8.460938 -32.765625 7.265625 -32.765625 Z M 7.265625 -32.765625 "/></g></g></g></g></g><g clip-path="url(#e4a2a46a0e)"><path fill="#1a08a7" d="M 204.992188 206.570312 C 204.890625 208.753906 206.4375 210.835938 209.34375 212.460938 C 209.191406 213.023438 209.070312 213.578125 208.988281 214.132812 C 208.171875 214.257812 207.542969 214.957031 207.542969 215.804688 C 207.542969 216.699219 208.242188 217.425781 209.117188 217.496094 C 209.585938 219.246094 210.625 220.382812 212.226562 220.847656 C 212.769531 221.007812 213.359375 221.082031 213.992188 221.082031 C 215.035156 221.082031 216.1875 220.875 217.394531 220.503906 C 218.636719 222.761719 220.539062 224.894531 223.121094 224.894531 C 223.785156 224.894531 224.4375 224.734375 225.078125 224.4375 C 225.378906 224.71875 225.785156 224.894531 226.230469 224.894531 C 227.167969 224.894531 227.929688 224.132812 227.929688 223.195312 C 227.929688 222.859375 227.828125 222.542969 227.65625 222.28125 C 228.082031 221.746094 228.464844 221.164062 228.816406 220.542969 C 229.890625 220.84375 230.949219 221.019531 231.964844 221.019531 C 231.992188 221.019531 232.011719 221.019531 232.039062 221.015625 C 232.296875 221.625 232.902344 222.054688 233.605469 222.054688 C 234.539062 222.054688 235.304688 221.292969 235.304688 220.355469 C 235.304688 220.273438 235.292969 220.199219 235.28125 220.125 C 236.480469 219.335938 237.191406 218.179688 237.390625 216.652344 C 237.550781 215.394531 237.359375 213.960938 236.898438 212.457031 C 239.867188 210.800781 241.425781 208.65625 241.230469 206.394531 C 241.050781 204.34375 239.503906 202.488281 236.902344 201.042969 C 237.1875 200.019531 237.355469 199.007812 237.367188 198.03125 C 238.03125 197.800781 238.511719 197.175781 238.511719 196.433594 C 238.511719 195.496094 237.75 194.734375 236.8125 194.734375 C 236.730469 194.734375 236.65625 194.746094 236.578125 194.757812 C 235.863281 193.574219 234.796875 192.835938 233.398438 192.5625 C 232.066406 192.304688 230.492188 192.5 228.835938 193 C 227.75 190.988281 226.332031 189.453125 224.539062 188.871094 C 224.382812 188.09375 223.695312 187.5 222.871094 187.5 C 221.976562 187.5 221.25 188.195312 221.183594 189.070312 C 219.628906 189.78125 218.371094 191.207031 217.386719 193 C 214.574219 192.15625 212 192.246094 210.300781 193.941406 C 208.511719 195.730469 208.464844 198.328125 209.308594 201.082031 C 206.605469 202.59375 205.089844 204.503906 204.992188 206.570312 Z M 212.441406 220.125 C 211.132812 219.746094 210.277344 218.820312 209.871094 217.382812 C 210.496094 217.132812 210.941406 216.523438 210.941406 215.804688 C 210.941406 215.042969 210.4375 214.402344 209.746094 214.1875 C 209.8125 213.738281 209.910156 213.285156 210.035156 212.824219 C 211.570312 213.59375 213.34375 214.199219 215.261719 214.636719 C 215.703125 216.574219 216.304688 218.339844 217.050781 219.847656 C 215.320312 220.359375 213.726562 220.5 212.441406 220.125 Z M 214.457031 208.917969 C 213.921875 208.214844 213.40625 207.484375 212.917969 206.734375 C 213.398438 206.007812 213.914062 205.285156 214.457031 204.582031 C 214.371094 206.039062 214.375 207.496094 214.457031 208.917969 Z M 212.464844 206.019531 C 211.53125 204.5 210.75 202.941406 210.230469 201.445312 C 210.527344 201.296875 210.835938 201.152344 211.15625 201.011719 C 211.46875 201.398438 211.9375 201.65625 212.476562 201.65625 C 213.414062 201.65625 214.175781 200.890625 214.175781 199.953125 L 214.175781 199.945312 C 214.460938 199.859375 214.761719 199.785156 215.074219 199.710938 C 214.832031 200.90625 214.664062 202.101562 214.5625 203.230469 C 213.824219 204.121094 213.113281 205.054688 212.464844 206.019531 Z M 212.484375 207.414062 C 213.152344 208.425781 213.863281 209.375 214.5625 210.25 C 214.679688 211.46875 214.851562 212.664062 215.082031 213.808594 C 213.296875 213.375 211.65625 212.804688 210.25 212.09375 C 210.757812 210.539062 211.53125 208.957031 212.484375 207.414062 Z M 219.871094 198.9375 C 221.992188 198.753906 224.171875 198.75 226.289062 198.929688 C 228 200.308594 229.453125 201.722656 230.925781 203.535156 C 231.136719 205.660156 231.152344 207.675781 230.941406 210.003906 C 229.390625 211.859375 227.917969 213.289062 226.335938 214.585938 C 224.195312 214.765625 221.996094 214.761719 219.867188 214.574219 C 218.082031 213.085938 216.640625 211.613281 215.308594 209.992188 C 215.117188 207.886719 215.101562 205.699219 215.289062 203.550781 C 216.738281 201.820312 218.324219 200.242188 219.871094 198.9375 Z M 215.433594 202.21875 C 215.542969 201.382812 215.699219 200.46875 215.902344 199.523438 C 216.761719 199.339844 217.652344 199.191406 218.5625 199.074219 C 217.53125 200 216.464844 201.0625 215.433594 202.21875 Z M 220.910156 198.105469 C 221.589844 197.585938 222.3125 197.078125 223.0625 196.597656 C 223.808594 197.078125 224.535156 197.582031 225.222656 198.101562 C 223.789062 198.019531 222.34375 198.023438 220.910156 198.105469 Z M 227.65625 199.074219 C 228.566406 199.1875 229.457031 199.335938 230.320312 199.519531 C 230.507812 200.40625 230.652344 201.300781 230.769531 202.175781 C 229.796875 201.066406 228.871094 200.132812 227.65625 199.074219 Z M 230.796875 211.328125 C 230.683594 212.21875 230.535156 213.117188 230.351562 214.003906 C 229.480469 214.1875 228.578125 214.335938 227.664062 214.449219 C 228.871094 213.398438 229.742188 212.515625 230.796875 211.328125 Z M 225.253906 215.433594 C 224.546875 215.972656 223.816406 216.480469 223.074219 216.953125 C 222.34375 216.472656 221.628906 215.960938 220.941406 215.429688 C 222.398438 215.523438 223.804688 215.519531 225.253906 215.433594 Z M 218.542969 214.429688 C 217.644531 214.316406 216.761719 214.171875 215.914062 213.992188 C 215.726562 213.128906 215.574219 212.234375 215.457031 211.320312 C 216.429688 212.441406 217.285156 213.316406 218.542969 214.429688 Z M 216.097656 214.820312 C 217.230469 215.046875 218.40625 215.21875 219.605469 215.332031 C 220.472656 216.046875 221.40625 216.746094 222.375 217.390625 C 220.832031 218.324219 219.273438 219.09375 217.785156 219.605469 C 217.097656 218.226562 216.53125 216.601562 216.097656 214.820312 Z M 227.113281 221.746094 C 226.855469 221.589844 226.554688 221.496094 226.230469 221.496094 C 225.292969 221.496094 224.53125 222.257812 224.53125 223.195312 C 224.53125 223.410156 224.574219 223.613281 224.648438 223.804688 C 224.148438 224.023438 223.636719 224.140625 223.121094 224.140625 C 220.898438 224.140625 219.210938 222.210938 218.128906 220.257812 C 219.734375 219.6875 221.417969 218.851562 223.058594 217.839844 C 224.683594 218.875 226.390625 219.746094 228.082031 220.3125 C 227.785156 220.824219 227.460938 221.304688 227.113281 221.746094 Z M 228.453125 219.644531 C 226.886719 219.132812 225.292969 218.339844 223.761719 217.394531 C 224.738281 216.757812 225.695312 216.066406 226.605469 215.335938 C 227.8125 215.222656 229.011719 215.050781 230.171875 214.816406 C 229.757812 216.535156 229.195312 218.191406 228.453125 219.644531 Z M 236.640625 216.554688 C 236.480469 217.789062 235.929688 218.742188 235.007812 219.398438 C 234.699219 218.953125 234.1875 218.652344 233.605469 218.652344 C 232.699219 218.652344 231.964844 219.367188 231.914062 220.257812 C 231.03125 220.253906 230.113281 220.113281 229.179688 219.859375 C 229.96875 218.28125 230.558594 216.484375 230.980469 214.632812 C 231.390625 214.539062 231.792969 214.4375 232.195312 214.328125 C 232.5 214.78125 233.019531 215.082031 233.605469 215.082031 C 234.570312 215.082031 235.378906 214.261719 235.292969 213.25 C 235.609375 213.109375 235.917969 212.964844 236.214844 212.816406 C 236.613281 214.167969 236.785156 215.445312 236.640625 216.554688 Z M 231.929688 213.617188 C 231.671875 213.691406 231.417969 213.757812 231.15625 213.820312 C 231.390625 212.644531 231.554688 211.460938 231.667969 210.304688 C 232.390625 209.425781 233.097656 208.484375 233.75 207.507812 C 234.683594 209.039062 235.457031 210.605469 235.980469 212.097656 C 235.6875 212.242188 235.378906 212.382812 235.0625 212.523438 C 234.765625 212.019531 234.226562 211.679688 233.605469 211.679688 C 232.609375 211.679688 231.769531 212.554688 231.929688 213.617188 Z M 231.769531 204.601562 C 232.3125 205.316406 232.828125 206.054688 233.3125 206.808594 C 232.828125 207.546875 232.3125 208.269531 231.777344 208.960938 C 231.878906 207.261719 231.867188 206.015625 231.769531 204.601562 Z M 231.652344 203.214844 C 231.53125 202.074219 231.351562 200.882812 231.109375 199.699219 C 232.984375 200.148438 234.632812 200.738281 236 201.433594 C 235.492188 202.992188 234.707031 204.578125 233.765625 206.097656 C 233.113281 205.105469 232.398438 204.136719 231.652344 203.214844 Z M 240.476562 206.464844 C 240.644531 208.378906 239.273438 210.242188 236.660156 211.730469 C 236.089844 210.113281 235.234375 208.433594 234.214844 206.796875 C 235.238281 205.179688 236.105469 203.480469 236.671875 201.792969 C 238.949219 203.101562 240.324219 204.726562 240.476562 206.464844 Z M 233.257812 193.304688 C 234.386719 193.523438 235.257812 194.101562 235.859375 195.027344 C 235.410156 195.335938 235.109375 195.847656 235.109375 196.433594 C 235.109375 197.304688 235.769531 198.011719 236.609375 198.109375 C 236.597656 198.945312 236.457031 199.8125 236.222656 200.6875 C 234.742188 199.953125 232.964844 199.339844 230.933594 198.882812 C 230.515625 197.039062 229.9375 195.242188 229.179688 193.671875 C 230.664062 193.238281 232.070312 193.074219 233.257812 193.304688 Z M 230.140625 198.710938 C 229.003906 198.480469 227.824219 198.316406 226.617188 198.203125 C 225.726562 197.484375 224.777344 196.789062 223.792969 196.144531 C 225.324219 195.21875 226.9375 194.421875 228.484375 193.890625 C 229.1875 195.332031 229.730469 196.992188 230.140625 198.710938 Z M 221.300781 189.851562 C 221.558594 190.464844 222.160156 190.898438 222.871094 190.898438 C 223.648438 190.898438 224.304688 190.371094 224.5 189.652344 C 225.992188 190.207031 227.191406 191.515625 228.140625 193.230469 C 226.457031 193.816406 224.71875 194.683594 223.089844 195.691406 C 221.457031 194.671875 219.761719 193.8125 218.125 193.238281 C 218.960938 191.738281 220.007812 190.507812 221.300781 189.851562 Z M 217.773438 193.910156 C 219.28125 194.441406 220.855469 195.238281 222.359375 196.15625 C 221.359375 196.808594 220.421875 197.507812 219.570312 198.207031 C 218.375 198.320312 217.210938 198.488281 216.085938 198.710938 C 216.484375 197.078125 217.039062 195.390625 217.773438 193.910156 Z M 210.835938 194.476562 C 212.308594 193 214.566406 192.949219 217.03125 193.675781 C 216.257812 195.253906 215.667969 197.0625 215.253906 198.890625 C 214.804688 198.992188 214.386719 199.097656 214 199.207031 C 213.71875 198.644531 213.144531 198.253906 212.476562 198.253906 C 211.539062 198.253906 210.777344 199.015625 210.777344 199.953125 C 210.777344 200.082031 210.792969 200.210938 210.820312 200.332031 C 210.539062 200.457031 210.261719 200.585938 209.996094 200.71875 C 209.269531 198.21875 209.355469 195.953125 210.835938 194.476562 Z M 209.554688 201.8125 C 210.144531 203.449219 211.019531 205.121094 212.019531 206.699219 C 210.988281 208.320312 210.128906 210.019531 209.570312 211.722656 C 207.015625 210.257812 205.660156 208.449219 205.746094 206.605469 C 205.828125 204.867188 207.191406 203.175781 209.554688 201.8125 Z M 209.554688 201.8125 " fill-opacity="1" fill-rule="nonzero"/></g><path fill="#1a08a7" d="M 230.746094 191.074219 C 230.492188 191.101562 230.238281 191.136719 229.976562 191.183594 L 230.105469 191.925781 C 230.347656 191.886719 230.589844 191.851562 230.828125 191.824219 Z M 230.746094 191.074219 " fill-opacity="1" fill-rule="nonzero"/><path fill="#1a08a7" d="M 232.308594 191.007812 C 232.054688 191 231.792969 191 231.523438 191.011719 L 231.558594 191.769531 C 231.804688 191.757812 232.046875 191.757812 232.285156 191.765625 Z M 232.308594 191.007812 " fill-opacity="1" fill-rule="nonzero"/><path fill="#1a08a7" d="M 234.644531 191.417969 L 234.398438 192.132812 C 234.625 192.210938 234.847656 192.300781 235.054688 192.402344 L 235.382812 191.722656 C 235.148438 191.605469 234.898438 191.503906 234.644531 191.417969 Z M 234.644531 191.417969 " fill-opacity="1" fill-rule="nonzero"/><path fill="#1a08a7" d="M 233.875 191.203125 C 233.625 191.144531 233.363281 191.101562 233.09375 191.070312 L 233.003906 191.820312 C 233.246094 191.847656 233.484375 191.890625 233.710938 191.941406 Z M 233.875 191.203125 " fill-opacity="1" fill-rule="nonzero"/><path fill="#1a08a7" d="M 236.722656 192.605469 C 236.523438 192.429688 236.308594 192.265625 236.082031 192.117188 L 235.667969 192.75 C 235.863281 192.878906 236.050781 193.023438 236.226562 193.175781 Z M 236.722656 192.605469 " fill-opacity="1" fill-rule="nonzero"/><path fill="#1a08a7" d="M 213.484375 222.492188 C 213.738281 222.515625 214.003906 222.523438 214.269531 222.523438 L 214.269531 221.769531 C 214.023438 221.769531 213.78125 221.761719 213.546875 221.742188 Z M 213.484375 222.492188 " fill-opacity="1" fill-rule="nonzero"/><path fill="#1a08a7" d="M 211.925781 222.214844 C 212.171875 222.285156 212.433594 222.34375 212.699219 222.394531 L 212.832031 221.648438 C 212.59375 221.605469 212.359375 221.550781 212.132812 221.488281 Z M 211.925781 222.214844 " fill-opacity="1" fill-rule="nonzero"/><path fill="#1a08a7" d="M 209.234375 220.65625 C 209.40625 220.828125 209.59375 220.992188 209.785156 221.140625 L 210.246094 220.542969 C 210.082031 220.414062 209.917969 220.273438 209.765625 220.121094 Z M 209.234375 220.65625 " fill-opacity="1" fill-rule="nonzero"/><path fill="#1a08a7" d="M 211.171875 221.949219 L 211.464844 221.25 C 211.246094 221.160156 211.03125 221.054688 210.832031 220.9375 L 210.449219 221.589844 C 210.679688 221.722656 210.921875 221.84375 211.171875 221.949219 Z M 211.171875 221.949219 " fill-opacity="1" fill-rule="nonzero"/><path fill="#1a08a7" d="M 207.441406 198.929688 C 207.464844 199.179688 207.496094 199.4375 207.539062 199.699219 L 208.285156 199.582031 C 208.246094 199.335938 208.214844 199.09375 208.191406 198.855469 Z M 207.441406 198.929688 " fill-opacity="1" fill-rule="nonzero"/><path fill="#1a08a7" d="M 207.859375 195.035156 L 208.566406 195.296875 C 208.652344 195.074219 208.746094 194.855469 208.855469 194.652344 L 208.183594 194.300781 C 208.0625 194.53125 207.953125 194.78125 207.859375 195.035156 Z M 207.859375 195.035156 " fill-opacity="1" fill-rule="nonzero"/><path fill="#1a08a7" d="M 209.667969 193.507812 L 209.117188 192.988281 C 208.933594 193.183594 208.761719 193.394531 208.605469 193.613281 L 209.222656 194.050781 C 209.355469 193.859375 209.507812 193.675781 209.667969 193.507812 Z M 209.667969 193.507812 " fill-opacity="1" fill-rule="nonzero"/><path fill="#1a08a7" d="M 207.476562 196.578125 L 208.222656 196.683594 C 208.257812 196.441406 208.304688 196.203125 208.359375 195.980469 L 207.625 195.796875 C 207.5625 196.046875 207.515625 196.3125 207.476562 196.578125 Z M 207.476562 196.578125 " fill-opacity="1" fill-rule="nonzero"/><path fill="#1a08a7" d="M 207.386719 197.871094 C 207.390625 197.964844 207.390625 198.054688 207.390625 198.148438 L 208.148438 198.128906 C 208.144531 198.039062 208.144531 197.953125 208.144531 197.871094 C 208.144531 197.710938 208.148438 197.554688 208.15625 197.402344 L 207.402344 197.363281 C 207.390625 197.53125 207.386719 197.699219 207.386719 197.871094 Z M 207.386719 197.871094 " fill-opacity="1" fill-rule="nonzero"/><path fill="#1a08a7" d="M 238.886719 215.625 C 238.886719 215.488281 238.882812 215.351562 238.878906 215.210938 L 238.125 215.242188 C 238.128906 215.371094 238.132812 215.5 238.132812 215.625 C 238.132812 215.742188 238.128906 215.855469 238.125 215.96875 L 238.878906 215.996094 C 238.886719 215.875 238.886719 215.75 238.886719 215.625 Z M 238.886719 215.625 " fill-opacity="1" fill-rule="nonzero"/><path fill="#1a08a7" d="M 238.820312 214.433594 C 238.792969 214.179688 238.757812 213.921875 238.710938 213.660156 L 237.96875 213.789062 C 238.007812 214.035156 238.042969 214.277344 238.070312 214.511719 Z M 238.820312 214.433594 " fill-opacity="1" fill-rule="nonzero"/><path fill="#1a08a7" d="M 238.457031 218.328125 L 237.746094 218.078125 C 237.667969 218.304688 237.574219 218.523438 237.46875 218.730469 L 238.148438 219.066406 C 238.265625 218.832031 238.367188 218.582031 238.457031 218.328125 Z M 238.457031 218.328125 " fill-opacity="1" fill-rule="nonzero"/><path fill="#1a08a7" d="M 236.683594 219.898438 L 237.25 220.398438 C 237.429688 220.199219 237.59375 219.984375 237.742188 219.761719 L 237.117188 219.339844 C 236.984375 219.535156 236.839844 219.722656 236.683594 219.898438 Z M 236.683594 219.898438 " fill-opacity="1" fill-rule="nonzero"/><path fill="#1a08a7" d="M 238.816406 216.78125 L 238.066406 216.6875 C 238.035156 216.925781 237.996094 217.164062 237.941406 217.394531 L 238.679688 217.5625 C 238.738281 217.308594 238.78125 217.046875 238.816406 216.78125 Z M 238.816406 216.78125 " fill-opacity="1" fill-rule="nonzero"/><path fill="#1a08a7" d="M 228.046875 202.175781 C 228.046875 202.398438 227.925781 202.609375 227.683594 202.8125 C 227.445312 203.015625 227.101562 203.195312 226.65625 203.347656 C 226.210938 203.503906 225.699219 203.625 225.117188 203.707031 C 224.535156 203.792969 223.933594 203.835938 223.304688 203.835938 C 222.675781 203.835938 222.070312 203.792969 221.488281 203.707031 C 220.90625 203.625 220.394531 203.503906 219.949219 203.347656 C 219.503906 203.195312 219.164062 203.015625 218.921875 202.8125 C 218.679688 202.609375 218.558594 202.398438 218.558594 202.175781 C 218.558594 201.957031 218.679688 201.746094 218.921875 201.542969 C 219.164062 201.339844 219.503906 201.160156 219.949219 201.003906 C 220.394531 200.851562 220.90625 200.730469 221.488281 200.644531 C 222.070312 200.5625 222.675781 200.519531 223.304688 200.519531 C 223.933594 200.519531 224.535156 200.5625 225.117188 200.644531 C 225.699219 200.730469 226.210938 200.851562 226.65625 201.003906 C 227.101562 201.160156 227.445312 201.339844 227.683594 201.542969 C 227.925781 201.746094 228.046875 201.957031 228.046875 202.175781 Z M 228.046875 202.175781 " fill-opacity="1" fill-rule="nonzero"/><path fill="#1a08a7" d="M 223.304688 211.976562 C 225.921875 211.976562 228.046875 211.234375 228.046875 210.320312 L 228.046875 207.003906 C 228.046875 207.917969 225.921875 208.660156 223.304688 208.660156 C 220.683594 208.660156 218.5625 207.917969 218.5625 207.003906 L 218.5625 210.320312 C 218.5625 211.234375 220.683594 211.976562 223.304688 211.976562 Z M 225.324219 209.734375 L 225.878906 209.734375 L 225.878906 210.488281 L 225.324219 210.488281 Z M 223.824219 209.734375 L 224.378906 209.734375 L 224.378906 210.488281 L 223.824219 210.488281 Z M 222.226562 209.734375 L 222.78125 209.734375 L 222.78125 210.488281 L 222.226562 210.488281 Z M 220.726562 209.734375 L 221.28125 209.734375 L 221.28125 210.488281 L 220.726562 210.488281 Z M 220.726562 209.734375 " fill-opacity="1" fill-rule="nonzero"/><path fill="#1a08a7" d="M 223.304688 207.90625 C 225.921875 207.90625 228.046875 207.164062 228.046875 206.25 L 228.046875 202.933594 C 228.046875 203.847656 225.921875 204.589844 223.304688 204.589844 C 220.683594 204.589844 218.5625 203.847656 218.5625 202.933594 L 218.5625 206.25 C 218.5625 207.164062 220.683594 207.90625 223.304688 207.90625 Z M 225.324219 205.664062 L 225.878906 205.664062 L 225.878906 206.417969 L 225.324219 206.417969 Z M 223.824219 205.664062 L 224.378906 205.664062 L 224.378906 206.417969 L 223.824219 206.417969 Z M 222.226562 205.664062 L 222.78125 205.664062 L 222.78125 206.417969 L 222.226562 206.417969 Z M 220.726562 205.664062 L 221.28125 205.664062 L 221.28125 206.417969 L 220.726562 206.417969 Z M 220.726562 205.664062 " fill-opacity="1" fill-rule="nonzero"/><g clip-path="url(#807174317c)"><g clip-path="url(#1d16da5a3c)"><g clip-path="url(#fb12926b29)"><path fill="#1a08a7" d="M 214.84375 185.59375 C 191.308594 174.910156 171.820312 173.679688 147.582031 183.144531 C 144.785156 184.195312 140.984375 185.855469 138.210938 187.046875 C 139.535156 185.964844 140.898438 184.929688 142.304688 183.957031 C 164.714844 168.332031 193.378906 168.167969 214.84375 185.59375 Z M 214.84375 185.59375 " fill-opacity="1" fill-rule="nonzero"/></g></g></g><g transform="matrix(1, 0, 0, 1, 51, 232)"><g clip-path="url(#225d0d3bd3)"><g fill="#1a08a7" fill-opacity="1"><g transform="translate(0.389606, 13.80861)"><g><path d="M 1.09375 0 L 1.09375 -9.921875 L 4.625 -9.921875 C 5.394531 -9.921875 6.03125 -9.78125 6.53125 -9.5 C 7.039062 -9.21875 7.421875 -8.832031 7.671875 -8.34375 C 7.929688 -7.863281 8.0625 -7.316406 8.0625 -6.703125 C 8.0625 -6.097656 7.929688 -5.550781 7.671875 -5.0625 C 7.421875 -4.570312 7.039062 -4.1875 6.53125 -3.90625 C 6.03125 -3.625 5.394531 -3.484375 4.625 -3.484375 L 2.1875 -3.484375 L 2.1875 -4.75 L 4.484375 -4.75 C 4.972656 -4.75 5.367188 -4.832031 5.671875 -5 C 5.972656 -5.175781 6.191406 -5.410156 6.328125 -5.703125 C 6.472656 -5.992188 6.546875 -6.328125 6.546875 -6.703125 C 6.546875 -7.078125 6.472656 -7.410156 6.328125 -7.703125 C 6.191406 -7.992188 5.972656 -8.222656 5.671875 -8.390625 C 5.367188 -8.554688 4.96875 -8.640625 4.46875 -8.640625 L 2.59375 -8.640625 L 2.59375 0 Z M 1.09375 0 "/></g></g></g><g fill="#1a08a7" fill-opacity="1"><g transform="translate(9.110167, 13.80861)"><g><path d="M 0.96875 0 L 0.96875 -7.4375 L 2.375 -7.4375 L 2.375 -6.265625 L 2.453125 -6.265625 C 2.585938 -6.660156 2.828125 -6.972656 3.171875 -7.203125 C 3.515625 -7.429688 3.90625 -7.546875 4.34375 -7.546875 C 4.425781 -7.546875 4.53125 -7.539062 4.65625 -7.53125 C 4.78125 -7.53125 4.878906 -7.523438 4.953125 -7.515625 L 4.953125 -6.125 C 4.898438 -6.144531 4.796875 -6.164062 4.640625 -6.1875 C 4.492188 -6.207031 4.347656 -6.21875 4.203125 -6.21875 C 3.859375 -6.21875 3.550781 -6.144531 3.28125 -6 C 3.019531 -5.851562 2.8125 -5.65625 2.65625 -5.40625 C 2.5 -5.15625 2.421875 -4.867188 2.421875 -4.546875 L 2.421875 0 Z M 0.96875 0 "/></g></g></g><g fill="#1a08a7" fill-opacity="1"><g transform="translate(14.080812, 13.80861)"><g><path d="M 4.109375 0.15625 C 3.410156 0.15625 2.800781 -0.00390625 2.28125 -0.328125 C 1.757812 -0.648438 1.351562 -1.097656 1.0625 -1.671875 C 0.78125 -2.242188 0.640625 -2.914062 0.640625 -3.6875 C 0.640625 -4.457031 0.78125 -5.128906 1.0625 -5.703125 C 1.351562 -6.285156 1.757812 -6.734375 2.28125 -7.046875 C 2.800781 -7.367188 3.410156 -7.53125 4.109375 -7.53125 C 4.804688 -7.53125 5.414062 -7.367188 5.9375 -7.046875 C 6.457031 -6.734375 6.859375 -6.285156 7.140625 -5.703125 C 7.429688 -5.128906 7.578125 -4.457031 7.578125 -3.6875 C 7.578125 -2.914062 7.429688 -2.242188 7.140625 -1.671875 C 6.859375 -1.097656 6.457031 -0.648438 5.9375 -0.328125 C 5.414062 -0.00390625 4.804688 0.15625 4.109375 0.15625 Z M 4.109375 -1.0625 C 4.566406 -1.0625 4.941406 -1.179688 5.234375 -1.421875 C 5.535156 -1.660156 5.753906 -1.976562 5.890625 -2.375 C 6.035156 -2.769531 6.109375 -3.207031 6.109375 -3.6875 C 6.109375 -4.164062 6.035156 -4.601562 5.890625 -5 C 5.753906 -5.394531 5.535156 -5.710938 5.234375 -5.953125 C 4.941406 -6.203125 4.566406 -6.328125 4.109375 -6.328125 C 3.648438 -6.328125 3.269531 -6.203125 2.96875 -5.953125 C 2.675781 -5.710938 2.457031 -5.394531 2.3125 -5 C 2.175781 -4.601562 2.109375 -4.164062 2.109375 -3.6875 C 2.109375 -3.207031 2.175781 -2.769531 2.3125 -2.375 C 2.457031 -1.976562 2.675781 -1.660156 2.96875 -1.421875 C 3.269531 -1.179688 3.648438 -1.0625 4.109375 -1.0625 Z M 4.109375 -1.0625 "/></g></g></g><g fill="#1a08a7" fill-opacity="1"><g transform="translate(22.297515, 13.80861)"><g><path d="M 0.96875 2.796875 L 0.96875 -7.4375 L 2.390625 -7.4375 L 2.390625 -6.234375 L 2.515625 -6.234375 C 2.597656 -6.390625 2.71875 -6.566406 2.875 -6.765625 C 3.03125 -6.972656 3.25 -7.148438 3.53125 -7.296875 C 3.8125 -7.453125 4.179688 -7.53125 4.640625 -7.53125 C 5.242188 -7.53125 5.78125 -7.378906 6.25 -7.078125 C 6.71875 -6.773438 7.085938 -6.335938 7.359375 -5.765625 C 7.628906 -5.191406 7.765625 -4.503906 7.765625 -3.703125 C 7.765625 -2.898438 7.628906 -2.210938 7.359375 -1.640625 C 7.097656 -1.066406 6.734375 -0.625 6.265625 -0.3125 C 5.796875 -0.0078125 5.257812 0.140625 4.65625 0.140625 C 4.207031 0.140625 3.835938 0.0664062 3.546875 -0.078125 C 3.265625 -0.234375 3.039062 -0.410156 2.875 -0.609375 C 2.71875 -0.816406 2.597656 -1 2.515625 -1.15625 L 2.421875 -1.15625 L 2.421875 2.796875 Z M 2.390625 -3.71875 C 2.390625 -3.195312 2.460938 -2.738281 2.609375 -2.34375 C 2.765625 -1.945312 2.984375 -1.640625 3.265625 -1.421875 C 3.554688 -1.203125 3.910156 -1.09375 4.328125 -1.09375 C 4.765625 -1.09375 5.128906 -1.207031 5.421875 -1.4375 C 5.710938 -1.664062 5.929688 -1.976562 6.078125 -2.375 C 6.234375 -2.769531 6.3125 -3.21875 6.3125 -3.71875 C 6.3125 -4.207031 6.234375 -4.644531 6.078125 -5.03125 C 5.929688 -5.425781 5.710938 -5.738281 5.421875 -5.96875 C 5.128906 -6.195312 4.765625 -6.3125 4.328125 -6.3125 C 3.910156 -6.3125 3.554688 -6.203125 3.265625 -5.984375 C 2.984375 -5.765625 2.765625 -5.460938 2.609375 -5.078125 C 2.460938 -4.691406 2.390625 -4.238281 2.390625 -3.71875 Z M 2.390625 -3.71875 "/></g></g></g><g fill="#1a08a7" fill-opacity="1"><g transform="translate(30.717699, 13.80861)"><g><path d="M 4.1875 0.15625 C 3.445312 0.15625 2.8125 0 2.28125 -0.3125 C 1.757812 -0.632812 1.351562 -1.082031 1.0625 -1.65625 C 0.78125 -2.226562 0.640625 -2.898438 0.640625 -3.671875 C 0.640625 -4.429688 0.78125 -5.101562 1.0625 -5.6875 C 1.351562 -6.269531 1.753906 -6.722656 2.265625 -7.046875 C 2.785156 -7.367188 3.390625 -7.53125 4.078125 -7.53125 C 4.492188 -7.53125 4.898438 -7.460938 5.296875 -7.328125 C 5.691406 -7.191406 6.046875 -6.972656 6.359375 -6.671875 C 6.671875 -6.378906 6.914062 -5.992188 7.09375 -5.515625 C 7.28125 -5.046875 7.375 -4.472656 7.375 -3.796875 L 7.375 -3.28125 L 1.453125 -3.28125 L 1.453125 -4.375 L 5.953125 -4.375 C 5.953125 -4.75 5.875 -5.082031 5.71875 -5.375 C 5.5625 -5.675781 5.34375 -5.910156 5.0625 -6.078125 C 4.789062 -6.253906 4.46875 -6.34375 4.09375 -6.34375 C 3.6875 -6.34375 3.332031 -6.242188 3.03125 -6.046875 C 2.726562 -5.847656 2.492188 -5.585938 2.328125 -5.265625 C 2.160156 -4.953125 2.078125 -4.609375 2.078125 -4.234375 L 2.078125 -3.390625 C 2.078125 -2.890625 2.164062 -2.460938 2.34375 -2.109375 C 2.519531 -1.765625 2.765625 -1.5 3.078125 -1.3125 C 3.398438 -1.132812 3.769531 -1.046875 4.1875 -1.046875 C 4.46875 -1.046875 4.71875 -1.082031 4.9375 -1.15625 C 5.164062 -1.238281 5.363281 -1.359375 5.53125 -1.515625 C 5.695312 -1.679688 5.820312 -1.878906 5.90625 -2.109375 L 7.28125 -1.859375 C 7.164062 -1.453125 6.96875 -1.097656 6.6875 -0.796875 C 6.40625 -0.492188 6.050781 -0.257812 5.625 -0.09375 C 5.207031 0.0703125 4.726562 0.15625 4.1875 0.15625 Z M 4.1875 0.15625 "/></g></g></g><g fill="#1a08a7" fill-opacity="1"><g transform="translate(38.730921, 13.80861)"><g><path d="M 2.421875 -9.921875 L 2.421875 0 L 0.96875 0 L 0.96875 -9.921875 Z M 2.421875 -9.921875 "/></g></g></g><g fill="#1a08a7" fill-opacity="1"><g transform="translate(42.127098, 13.80861)"><g/></g></g><g fill="#1a08a7" fill-opacity="1"><g transform="translate(45.741285, 13.80861)"><g><path d="M 1.890625 2.796875 C 1.671875 2.796875 1.472656 2.773438 1.296875 2.734375 C 1.117188 2.703125 0.988281 2.664062 0.90625 2.625 L 1.25 1.4375 C 1.507812 1.507812 1.742188 1.539062 1.953125 1.53125 C 2.160156 1.519531 2.34375 1.441406 2.5 1.296875 C 2.664062 1.148438 2.8125 0.914062 2.9375 0.59375 L 3.109375 0.09375 L 0.390625 -7.4375 L 1.9375 -7.4375 L 3.828125 -1.671875 L 3.90625 -1.671875 L 5.78125 -7.4375 L 7.34375 -7.4375 L 4.265625 1 C 4.128906 1.382812 3.953125 1.710938 3.734375 1.984375 C 3.515625 2.253906 3.25 2.457031 2.9375 2.59375 C 2.632812 2.726562 2.285156 2.796875 1.890625 2.796875 Z M 1.890625 2.796875 "/></g></g></g><g fill="#1a08a7" fill-opacity="1"><g transform="translate(53.206988, 13.80861)"><g><path d="M 4.109375 0.15625 C 3.410156 0.15625 2.800781 -0.00390625 2.28125 -0.328125 C 1.757812 -0.648438 1.351562 -1.097656 1.0625 -1.671875 C 0.78125 -2.242188 0.640625 -2.914062 0.640625 -3.6875 C 0.640625 -4.457031 0.78125 -5.128906 1.0625 -5.703125 C 1.351562 -6.285156 1.757812 -6.734375 2.28125 -7.046875 C 2.800781 -7.367188 3.410156 -7.53125 4.109375 -7.53125 C 4.804688 -7.53125 5.414062 -7.367188 5.9375 -7.046875 C 6.457031 -6.734375 6.859375 -6.285156 7.140625 -5.703125 C 7.429688 -5.128906 7.578125 -4.457031 7.578125 -3.6875 C 7.578125 -2.914062 7.429688 -2.242188 7.140625 -1.671875 C 6.859375 -1.097656 6.457031 -0.648438 5.9375 -0.328125 C 5.414062 -0.00390625 4.804688 0.15625 4.109375 0.15625 Z M 4.109375 -1.0625 C 4.566406 -1.0625 4.941406 -1.179688 5.234375 -1.421875 C 5.535156 -1.660156 5.753906 -1.976562 5.890625 -2.375 C 6.035156 -2.769531 6.109375 -3.207031 6.109375 -3.6875 C 6.109375 -4.164062 6.035156 -4.601562 5.890625 -5 C 5.753906 -5.394531 5.535156 -5.710938 5.234375 -5.953125 C 4.941406 -6.203125 4.566406 -6.328125 4.109375 -6.328125 C 3.648438 -6.328125 3.269531 -6.203125 2.96875 -5.953125 C 2.675781 -5.710938 2.457031 -5.394531 2.3125 -5 C 2.175781 -4.601562 2.109375 -4.164062 2.109375 -3.6875 C 2.109375 -3.207031 2.175781 -2.769531 2.3125 -2.375 C 2.457031 -1.976562 2.675781 -1.660156 2.96875 -1.421875 C 3.269531 -1.179688 3.648438 -1.0625 4.109375 -1.0625 Z M 4.109375 -1.0625 "/></g></g></g><g fill="#1a08a7" fill-opacity="1"><g transform="translate(61.423691, 13.80861)"><g><path d="M 5.6875 -3.078125 L 5.6875 -7.4375 L 7.140625 -7.4375 L 7.140625 0 L 5.71875 0 L 5.71875 -1.28125 L 5.640625 -1.28125 C 5.460938 -0.882812 5.1875 -0.554688 4.8125 -0.296875 C 4.4375 -0.0351562 3.972656 0.09375 3.421875 0.09375 C 2.941406 0.09375 2.515625 -0.0078125 2.140625 -0.21875 C 1.773438 -0.425781 1.488281 -0.738281 1.28125 -1.15625 C 1.070312 -1.570312 0.96875 -2.085938 0.96875 -2.703125 L 0.96875 -7.4375 L 2.421875 -7.4375 L 2.421875 -2.875 C 2.421875 -2.375 2.5625 -1.972656 2.84375 -1.671875 C 3.125 -1.367188 3.488281 -1.21875 3.9375 -1.21875 C 4.207031 -1.21875 4.476562 -1.285156 4.75 -1.421875 C 5.019531 -1.554688 5.242188 -1.757812 5.421875 -2.03125 C 5.597656 -2.3125 5.6875 -2.660156 5.6875 -3.078125 Z M 5.6875 -3.078125 "/></g></g></g><g fill="#1a08a7" fill-opacity="1"><g transform="translate(69.533811, 13.80861)"><g><path d="M 0.96875 0 L 0.96875 -7.4375 L 2.375 -7.4375 L 2.375 -6.265625 L 2.453125 -6.265625 C 2.585938 -6.660156 2.828125 -6.972656 3.171875 -7.203125 C 3.515625 -7.429688 3.90625 -7.546875 4.34375 -7.546875 C 4.425781 -7.546875 4.53125 -7.539062 4.65625 -7.53125 C 4.78125 -7.53125 4.878906 -7.523438 4.953125 -7.515625 L 4.953125 -6.125 C 4.898438 -6.144531 4.796875 -6.164062 4.640625 -6.1875 C 4.492188 -6.207031 4.347656 -6.21875 4.203125 -6.21875 C 3.859375 -6.21875 3.550781 -6.144531 3.28125 -6 C 3.019531 -5.851562 2.8125 -5.65625 2.65625 -5.40625 C 2.5 -5.15625 2.421875 -4.867188 2.421875 -4.546875 L 2.421875 0 Z M 0.96875 0 "/></g></g></g><g fill="#1a08a7" fill-opacity="1"><g transform="translate(74.775829, 13.80861)"><g/></g></g><g fill="#1a08a7" fill-opacity="1"><g transform="translate(78.390016, 13.80861)"><g><path d="M 3.765625 0.140625 C 3.160156 0.140625 2.625 -0.0078125 2.15625 -0.3125 C 1.6875 -0.625 1.316406 -1.066406 1.046875 -1.640625 C 0.785156 -2.210938 0.65625 -2.898438 0.65625 -3.703125 C 0.65625 -4.503906 0.785156 -5.191406 1.046875 -5.765625 C 1.316406 -6.335938 1.6875 -6.773438 2.15625 -7.078125 C 2.632812 -7.378906 3.171875 -7.53125 3.765625 -7.53125 C 4.234375 -7.53125 4.609375 -7.453125 4.890625 -7.296875 C 5.171875 -7.148438 5.390625 -6.972656 5.546875 -6.765625 C 5.703125 -6.566406 5.820312 -6.390625 5.90625 -6.234375 L 6 -6.234375 L 6 -9.921875 L 7.4375 -9.921875 L 7.4375 0 L 6.03125 0 L 6.03125 -1.15625 L 5.90625 -1.15625 C 5.820312 -1 5.695312 -0.816406 5.53125 -0.609375 C 5.375 -0.410156 5.148438 -0.234375 4.859375 -0.078125 C 4.578125 0.0664062 4.210938 0.140625 3.765625 0.140625 Z M 4.078125 -1.09375 C 4.492188 -1.09375 4.847656 -1.203125 5.140625 -1.421875 C 5.429688 -1.640625 5.648438 -1.945312 5.796875 -2.34375 C 5.941406 -2.738281 6.015625 -3.195312 6.015625 -3.71875 C 6.015625 -4.238281 5.941406 -4.691406 5.796875 -5.078125 C 5.648438 -5.460938 5.429688 -5.765625 5.140625 -5.984375 C 4.859375 -6.203125 4.503906 -6.3125 4.078125 -6.3125 C 3.640625 -6.3125 3.273438 -6.195312 2.984375 -5.96875 C 2.691406 -5.738281 2.472656 -5.425781 2.328125 -5.03125 C 2.179688 -4.644531 2.109375 -4.207031 2.109375 -3.71875 C 2.109375 -3.21875 2.179688 -2.769531 2.328125 -2.375 C 2.484375 -1.976562 2.707031 -1.664062 3 -1.4375 C 3.289062 -1.207031 3.648438 -1.09375 4.078125 -1.09375 Z M 4.078125 -1.09375 "/></g></g></g><g fill="#1a08a7" fill-opacity="1"><g transform="translate(86.926471, 13.80861)"><g><path d="M 3.140625 0.171875 C 2.671875 0.171875 2.242188 0.0820312 1.859375 -0.09375 C 1.472656 -0.269531 1.171875 -0.523438 0.953125 -0.859375 C 0.734375 -1.203125 0.625 -1.617188 0.625 -2.109375 C 0.625 -2.523438 0.703125 -2.867188 0.859375 -3.140625 C 1.023438 -3.410156 1.242188 -3.625 1.515625 -3.78125 C 1.796875 -3.9375 2.101562 -4.054688 2.4375 -4.140625 C 2.78125 -4.222656 3.128906 -4.285156 3.484375 -4.328125 C 3.921875 -4.378906 4.28125 -4.421875 4.5625 -4.453125 C 4.84375 -4.484375 5.046875 -4.535156 5.171875 -4.609375 C 5.296875 -4.691406 5.359375 -4.820312 5.359375 -5 L 5.359375 -5.03125 C 5.359375 -5.457031 5.238281 -5.785156 5 -6.015625 C 4.757812 -6.242188 4.40625 -6.359375 3.9375 -6.359375 C 3.457031 -6.359375 3.078125 -6.25 2.796875 -6.03125 C 2.515625 -5.820312 2.320312 -5.585938 2.21875 -5.328125 L 0.859375 -5.640625 C 1.015625 -6.085938 1.25 -6.453125 1.5625 -6.734375 C 1.875 -7.015625 2.234375 -7.21875 2.640625 -7.34375 C 3.046875 -7.46875 3.472656 -7.53125 3.921875 -7.53125 C 4.222656 -7.53125 4.539062 -7.492188 4.875 -7.421875 C 5.207031 -7.359375 5.519531 -7.234375 5.8125 -7.046875 C 6.101562 -6.867188 6.34375 -6.609375 6.53125 -6.265625 C 6.71875 -5.921875 6.8125 -5.476562 6.8125 -4.9375 L 6.8125 0 L 5.390625 0 L 5.390625 -1.015625 L 5.34375 -1.015625 C 5.25 -0.828125 5.109375 -0.640625 4.921875 -0.453125 C 4.734375 -0.273438 4.488281 -0.125 4.1875 0 C 3.894531 0.113281 3.546875 0.171875 3.140625 0.171875 Z M 3.453125 -1 C 3.847656 -1 4.1875 -1.078125 4.46875 -1.234375 C 4.757812 -1.390625 4.976562 -1.597656 5.125 -1.859375 C 5.28125 -2.117188 5.359375 -2.394531 5.359375 -2.6875 L 5.359375 -3.640625 C 5.304688 -3.585938 5.207031 -3.539062 5.0625 -3.5 C 4.914062 -3.457031 4.75 -3.421875 4.5625 -3.390625 C 4.375 -3.359375 4.191406 -3.328125 4.015625 -3.296875 C 3.835938 -3.273438 3.6875 -3.257812 3.5625 -3.25 C 3.289062 -3.207031 3.035156 -3.144531 2.796875 -3.0625 C 2.566406 -2.976562 2.382812 -2.859375 2.25 -2.703125 C 2.113281 -2.546875 2.046875 -2.335938 2.046875 -2.078125 C 2.046875 -1.722656 2.175781 -1.453125 2.4375 -1.265625 C 2.707031 -1.085938 3.046875 -1 3.453125 -1 Z M 3.453125 -1 "/></g></g></g><g fill="#1a08a7" fill-opacity="1"><g transform="translate(94.692608, 13.80861)"><g><path d="M 4.453125 -7.4375 L 4.453125 -6.28125 L 0.375 -6.28125 L 0.375 -7.4375 Z M 1.46875 -9.21875 L 2.921875 -9.21875 L 2.921875 -2.1875 C 2.921875 -1.90625 2.960938 -1.691406 3.046875 -1.546875 C 3.128906 -1.410156 3.238281 -1.316406 3.375 -1.265625 C 3.507812 -1.210938 3.65625 -1.1875 3.8125 -1.1875 C 3.925781 -1.1875 4.023438 -1.191406 4.109375 -1.203125 C 4.203125 -1.222656 4.273438 -1.238281 4.328125 -1.25 L 4.578125 -0.0625 C 4.492188 -0.03125 4.375 0 4.21875 0.03125 C 4.0625 0.0703125 3.867188 0.09375 3.640625 0.09375 C 3.265625 0.101562 2.910156 0.0390625 2.578125 -0.09375 C 2.242188 -0.238281 1.972656 -0.460938 1.765625 -0.765625 C 1.566406 -1.066406 1.46875 -1.441406 1.46875 -1.890625 Z M 1.46875 -9.21875 "/></g></g></g><g fill="#1a08a7" fill-opacity="1"><g transform="translate(99.765063, 13.80861)"><g><path d="M 3.140625 0.171875 C 2.671875 0.171875 2.242188 0.0820312 1.859375 -0.09375 C 1.472656 -0.269531 1.171875 -0.523438 0.953125 -0.859375 C 0.734375 -1.203125 0.625 -1.617188 0.625 -2.109375 C 0.625 -2.523438 0.703125 -2.867188 0.859375 -3.140625 C 1.023438 -3.410156 1.242188 -3.625 1.515625 -3.78125 C 1.796875 -3.9375 2.101562 -4.054688 2.4375 -4.140625 C 2.78125 -4.222656 3.128906 -4.285156 3.484375 -4.328125 C 3.921875 -4.378906 4.28125 -4.421875 4.5625 -4.453125 C 4.84375 -4.484375 5.046875 -4.535156 5.171875 -4.609375 C 5.296875 -4.691406 5.359375 -4.820312 5.359375 -5 L 5.359375 -5.03125 C 5.359375 -5.457031 5.238281 -5.785156 5 -6.015625 C 4.757812 -6.242188 4.40625 -6.359375 3.9375 -6.359375 C 3.457031 -6.359375 3.078125 -6.25 2.796875 -6.03125 C 2.515625 -5.820312 2.320312 -5.585938 2.21875 -5.328125 L 0.859375 -5.640625 C 1.015625 -6.085938 1.25 -6.453125 1.5625 -6.734375 C 1.875 -7.015625 2.234375 -7.21875 2.640625 -7.34375 C 3.046875 -7.46875 3.472656 -7.53125 3.921875 -7.53125 C 4.222656 -7.53125 4.539062 -7.492188 4.875 -7.421875 C 5.207031 -7.359375 5.519531 -7.234375 5.8125 -7.046875 C 6.101562 -6.867188 6.34375 -6.609375 6.53125 -6.265625 C 6.71875 -5.921875 6.8125 -5.476562 6.8125 -4.9375 L 6.8125 0 L 5.390625 0 L 5.390625 -1.015625 L 5.34375 -1.015625 C 5.25 -0.828125 5.109375 -0.640625 4.921875 -0.453125 C 4.734375 -0.273438 4.488281 -0.125 4.1875 0 C 3.894531 0.113281 3.546875 0.171875 3.140625 0.171875 Z M 3.453125 -1 C 3.847656 -1 4.1875 -1.078125 4.46875 -1.234375 C 4.757812 -1.390625 4.976562 -1.597656 5.125 -1.859375 C 5.28125 -2.117188 5.359375 -2.394531 5.359375 -2.6875 L 5.359375 -3.640625 C 5.304688 -3.585938 5.207031 -3.539062 5.0625 -3.5 C 4.914062 -3.457031 4.75 -3.421875 4.5625 -3.390625 C 4.375 -3.359375 4.191406 -3.328125 4.015625 -3.296875 C 3.835938 -3.273438 3.6875 -3.257812 3.5625 -3.25 C 3.289062 -3.207031 3.035156 -3.144531 2.796875 -3.0625 C 2.566406 -2.976562 2.382812 -2.859375 2.25 -2.703125 C 2.113281 -2.546875 2.046875 -2.335938 2.046875 -2.078125 C 2.046875 -1.722656 2.175781 -1.453125 2.4375 -1.265625 C 2.707031 -1.085938 3.046875 -1 3.453125 -1 Z M 3.453125 -1 "/></g></g></g><g fill="#1a08a7" fill-opacity="1"><g transform="translate(107.5312, 13.80861)"><g><path d="M 1.921875 0.09375 C 1.660156 0.09375 1.429688 0 1.234375 -0.1875 C 1.046875 -0.375 0.953125 -0.601562 0.953125 -0.875 C 0.953125 -1.144531 1.046875 -1.375 1.234375 -1.5625 C 1.429688 -1.75 1.660156 -1.84375 1.921875 -1.84375 C 2.191406 -1.84375 2.421875 -1.75 2.609375 -1.5625 C 2.796875 -1.375 2.890625 -1.144531 2.890625 -0.875 C 2.890625 -0.695312 2.84375 -0.535156 2.75 -0.390625 C 2.664062 -0.242188 2.550781 -0.125 2.40625 -0.03125 C 2.257812 0.0507812 2.097656 0.09375 1.921875 0.09375 Z M 1.921875 0.09375 "/></g></g></g><g fill="#1a08a7" fill-opacity="1"><g transform="translate(111.237399, 13.80861)"><g/></g></g><g fill="#1a08a7" fill-opacity="1"><g transform="translate(114.851586, 13.80861)"><g><path d="M 4.296875 0 L 1.09375 0 L 1.09375 -9.921875 L 4.40625 -9.921875 C 5.375 -9.921875 6.207031 -9.722656 6.90625 -9.328125 C 7.601562 -8.929688 8.140625 -8.363281 8.515625 -7.625 C 8.890625 -6.882812 9.078125 -6 9.078125 -4.96875 C 9.078125 -3.9375 8.882812 -3.050781 8.5 -2.3125 C 8.125 -1.570312 7.582031 -1 6.875 -0.59375 C 6.164062 -0.195312 5.304688 0 4.296875 0 Z M 2.59375 -1.3125 L 4.21875 -1.3125 C 4.976562 -1.3125 5.609375 -1.453125 6.109375 -1.734375 C 6.609375 -2.023438 6.976562 -2.441406 7.21875 -2.984375 C 7.46875 -3.523438 7.59375 -4.1875 7.59375 -4.96875 C 7.59375 -5.75 7.46875 -6.410156 7.21875 -6.953125 C 6.976562 -7.492188 6.613281 -7.90625 6.125 -8.1875 C 5.632812 -8.46875 5.03125 -8.609375 4.3125 -8.609375 L 2.59375 -8.609375 Z M 2.59375 -1.3125 "/></g></g></g><g fill="#1a08a7" fill-opacity="1"><g transform="translate(124.696134, 13.80861)"><g><path d="M 0.96875 0 L 0.96875 -7.4375 L 2.421875 -7.4375 L 2.421875 0 Z M 1.703125 -8.59375 C 1.453125 -8.59375 1.238281 -8.675781 1.0625 -8.84375 C 0.882812 -9.007812 0.796875 -9.210938 0.796875 -9.453125 C 0.796875 -9.691406 0.882812 -9.894531 1.0625 -10.0625 C 1.238281 -10.226562 1.453125 -10.3125 1.703125 -10.3125 C 1.953125 -10.3125 2.164062 -10.226562 2.34375 -10.0625 C 2.53125 -9.894531 2.625 -9.691406 2.625 -9.453125 C 2.625 -9.210938 2.53125 -9.007812 2.34375 -8.84375 C 2.164062 -8.675781 1.953125 -8.59375 1.703125 -8.59375 Z M 1.703125 -8.59375 "/></g></g></g><g fill="#1a08a7" fill-opacity="1"><g transform="translate(128.092311, 13.80861)"><g><path d="M 6.546875 -5.625 L 5.234375 -5.390625 C 5.179688 -5.554688 5.09375 -5.710938 4.96875 -5.859375 C 4.851562 -6.015625 4.695312 -6.140625 4.5 -6.234375 C 4.300781 -6.335938 4.050781 -6.390625 3.75 -6.390625 C 3.34375 -6.390625 3 -6.296875 2.71875 -6.109375 C 2.445312 -5.929688 2.3125 -5.695312 2.3125 -5.40625 C 2.3125 -5.15625 2.398438 -4.953125 2.578125 -4.796875 C 2.765625 -4.648438 3.066406 -4.53125 3.484375 -4.4375 L 4.65625 -4.171875 C 5.34375 -4.003906 5.851562 -3.753906 6.1875 -3.421875 C 6.519531 -3.097656 6.6875 -2.675781 6.6875 -2.15625 C 6.6875 -1.707031 6.554688 -1.304688 6.296875 -0.953125 C 6.046875 -0.609375 5.691406 -0.335938 5.234375 -0.140625 C 4.773438 0.0546875 4.25 0.15625 3.65625 0.15625 C 2.820312 0.15625 2.140625 -0.0195312 1.609375 -0.375 C 1.085938 -0.738281 0.765625 -1.25 0.640625 -1.90625 L 2.046875 -2.125 C 2.128906 -1.757812 2.304688 -1.484375 2.578125 -1.296875 C 2.847656 -1.109375 3.203125 -1.015625 3.640625 -1.015625 C 4.117188 -1.015625 4.5 -1.113281 4.78125 -1.3125 C 5.0625 -1.507812 5.203125 -1.753906 5.203125 -2.046875 C 5.203125 -2.273438 5.113281 -2.46875 4.9375 -2.625 C 4.769531 -2.789062 4.507812 -2.910156 4.15625 -2.984375 L 2.890625 -3.265625 C 2.203125 -3.421875 1.691406 -3.671875 1.359375 -4.015625 C 1.023438 -4.359375 0.859375 -4.796875 0.859375 -5.328125 C 0.859375 -5.765625 0.976562 -6.148438 1.21875 -6.484375 C 1.46875 -6.816406 1.804688 -7.070312 2.234375 -7.25 C 2.671875 -7.4375 3.171875 -7.53125 3.734375 -7.53125 C 4.535156 -7.53125 5.164062 -7.359375 5.625 -7.015625 C 6.09375 -6.671875 6.398438 -6.207031 6.546875 -5.625 Z M 6.546875 -5.625 "/></g></g></g><g fill="#1a08a7" fill-opacity="1"><g transform="translate(135.403038, 13.80861)"><g><path d="M 4.109375 0.15625 C 3.390625 0.15625 2.769531 -0.00390625 2.25 -0.328125 C 1.726562 -0.660156 1.328125 -1.113281 1.046875 -1.6875 C 0.773438 -2.269531 0.640625 -2.9375 0.640625 -3.6875 C 0.640625 -4.4375 0.78125 -5.101562 1.0625 -5.6875 C 1.34375 -6.269531 1.742188 -6.722656 2.265625 -7.046875 C 2.785156 -7.367188 3.394531 -7.53125 4.09375 -7.53125 C 4.65625 -7.53125 5.15625 -7.425781 5.59375 -7.21875 C 6.039062 -7.007812 6.398438 -6.71875 6.671875 -6.34375 C 6.953125 -5.96875 7.117188 -5.53125 7.171875 -5.03125 L 5.75 -5.03125 C 5.675781 -5.382812 5.5 -5.6875 5.21875 -5.9375 C 4.945312 -6.1875 4.582031 -6.3125 4.125 -6.3125 C 3.71875 -6.3125 3.363281 -6.207031 3.0625 -6 C 2.757812 -5.789062 2.523438 -5.488281 2.359375 -5.09375 C 2.191406 -4.707031 2.109375 -4.25 2.109375 -3.71875 C 2.109375 -3.175781 2.1875 -2.707031 2.34375 -2.3125 C 2.507812 -1.914062 2.742188 -1.609375 3.046875 -1.390625 C 3.347656 -1.179688 3.707031 -1.078125 4.125 -1.078125 C 4.394531 -1.078125 4.640625 -1.125 4.859375 -1.21875 C 5.085938 -1.320312 5.273438 -1.46875 5.421875 -1.65625 C 5.578125 -1.851562 5.6875 -2.085938 5.75 -2.359375 L 7.171875 -2.359375 C 7.117188 -1.867188 6.957031 -1.4375 6.6875 -1.0625 C 6.425781 -0.6875 6.078125 -0.390625 5.640625 -0.171875 C 5.203125 0.046875 4.691406 0.15625 4.109375 0.15625 Z M 4.109375 0.15625 "/></g></g></g><g fill="#1a08a7" fill-opacity="1"><g transform="translate(143.149801, 13.80861)"><g><path d="M 4.109375 0.15625 C 3.410156 0.15625 2.800781 -0.00390625 2.28125 -0.328125 C 1.757812 -0.648438 1.351562 -1.097656 1.0625 -1.671875 C 0.78125 -2.242188 0.640625 -2.914062 0.640625 -3.6875 C 0.640625 -4.457031 0.78125 -5.128906 1.0625 -5.703125 C 1.351562 -6.285156 1.757812 -6.734375 2.28125 -7.046875 C 2.800781 -7.367188 3.410156 -7.53125 4.109375 -7.53125 C 4.804688 -7.53125 5.414062 -7.367188 5.9375 -7.046875 C 6.457031 -6.734375 6.859375 -6.285156 7.140625 -5.703125 C 7.429688 -5.128906 7.578125 -4.457031 7.578125 -3.6875 C 7.578125 -2.914062 7.429688 -2.242188 7.140625 -1.671875 C 6.859375 -1.097656 6.457031 -0.648438 5.9375 -0.328125 C 5.414062 -0.00390625 4.804688 0.15625 4.109375 0.15625 Z M 4.109375 -1.0625 C 4.566406 -1.0625 4.941406 -1.179688 5.234375 -1.421875 C 5.535156 -1.660156 5.753906 -1.976562 5.890625 -2.375 C 6.035156 -2.769531 6.109375 -3.207031 6.109375 -3.6875 C 6.109375 -4.164062 6.035156 -4.601562 5.890625 -5 C 5.753906 -5.394531 5.535156 -5.710938 5.234375 -5.953125 C 4.941406 -6.203125 4.566406 -6.328125 4.109375 -6.328125 C 3.648438 -6.328125 3.269531 -6.203125 2.96875 -5.953125 C 2.675781 -5.710938 2.457031 -5.394531 2.3125 -5 C 2.175781 -4.601562 2.109375 -4.164062 2.109375 -3.6875 C 2.109375 -3.207031 2.175781 -2.769531 2.3125 -2.375 C 2.457031 -1.976562 2.675781 -1.660156 2.96875 -1.421875 C 3.269531 -1.179688 3.648438 -1.0625 4.109375 -1.0625 Z M 4.109375 -1.0625 "/></g></g></g><g fill="#1a08a7" fill-opacity="1"><g transform="translate(151.104818, 13.80861)"><g><path d="M 7.34375 -7.4375 L 4.640625 0 L 3.09375 0 L 0.390625 -7.4375 L 1.9375 -7.4375 L 3.828125 -1.71875 L 3.90625 -1.71875 L 5.78125 -7.4375 Z M 7.34375 -7.4375 "/></g></g></g><g fill="#1a08a7" fill-opacity="1"><g transform="translate(158.570521, 13.80861)"><g><path d="M 4.1875 0.15625 C 3.445312 0.15625 2.8125 0 2.28125 -0.3125 C 1.757812 -0.632812 1.351562 -1.082031 1.0625 -1.65625 C 0.78125 -2.226562 0.640625 -2.898438 0.640625 -3.671875 C 0.640625 -4.429688 0.78125 -5.101562 1.0625 -5.6875 C 1.351562 -6.269531 1.753906 -6.722656 2.265625 -7.046875 C 2.785156 -7.367188 3.390625 -7.53125 4.078125 -7.53125 C 4.492188 -7.53125 4.898438 -7.460938 5.296875 -7.328125 C 5.691406 -7.191406 6.046875 -6.972656 6.359375 -6.671875 C 6.671875 -6.378906 6.914062 -5.992188 7.09375 -5.515625 C 7.28125 -5.046875 7.375 -4.472656 7.375 -3.796875 L 7.375 -3.28125 L 1.453125 -3.28125 L 1.453125 -4.375 L 5.953125 -4.375 C 5.953125 -4.75 5.875 -5.082031 5.71875 -5.375 C 5.5625 -5.675781 5.34375 -5.910156 5.0625 -6.078125 C 4.789062 -6.253906 4.46875 -6.34375 4.09375 -6.34375 C 3.6875 -6.34375 3.332031 -6.242188 3.03125 -6.046875 C 2.726562 -5.847656 2.492188 -5.585938 2.328125 -5.265625 C 2.160156 -4.953125 2.078125 -4.609375 2.078125 -4.234375 L 2.078125 -3.390625 C 2.078125 -2.890625 2.164062 -2.460938 2.34375 -2.109375 C 2.519531 -1.765625 2.765625 -1.5 3.078125 -1.3125 C 3.398438 -1.132812 3.769531 -1.046875 4.1875 -1.046875 C 4.46875 -1.046875 4.71875 -1.082031 4.9375 -1.15625 C 5.164062 -1.238281 5.363281 -1.359375 5.53125 -1.515625 C 5.695312 -1.679688 5.820312 -1.878906 5.90625 -2.109375 L 7.28125 -1.859375 C 7.164062 -1.453125 6.96875 -1.097656 6.6875 -0.796875 C 6.40625 -0.492188 6.050781 -0.257812 5.625 -0.09375 C 5.207031 0.0703125 4.726562 0.15625 4.1875 0.15625 Z M 4.1875 0.15625 "/></g></g></g><g fill="#1a08a7" fill-opacity="1"><g transform="translate(166.583743, 13.80861)"><g><path d="M 0.96875 0 L 0.96875 -7.4375 L 2.375 -7.4375 L 2.375 -6.265625 L 2.453125 -6.265625 C 2.585938 -6.660156 2.828125 -6.972656 3.171875 -7.203125 C 3.515625 -7.429688 3.90625 -7.546875 4.34375 -7.546875 C 4.425781 -7.546875 4.53125 -7.539062 4.65625 -7.53125 C 4.78125 -7.53125 4.878906 -7.523438 4.953125 -7.515625 L 4.953125 -6.125 C 4.898438 -6.144531 4.796875 -6.164062 4.640625 -6.1875 C 4.492188 -6.207031 4.347656 -6.21875 4.203125 -6.21875 C 3.859375 -6.21875 3.550781 -6.144531 3.28125 -6 C 3.019531 -5.851562 2.8125 -5.65625 2.65625 -5.40625 C 2.5 -5.15625 2.421875 -4.867188 2.421875 -4.546875 L 2.421875 0 Z M 0.96875 0 "/></g></g></g><g fill="#1a08a7" fill-opacity="1"><g transform="translate(171.825761, 13.80861)"><g/></g></g><g fill="#1a08a7" fill-opacity="1"><g transform="translate(175.439949, 13.80861)"><g><path d="M 4.296875 0 L 1.09375 0 L 1.09375 -9.921875 L 4.40625 -9.921875 C 5.375 -9.921875 6.207031 -9.722656 6.90625 -9.328125 C 7.601562 -8.929688 8.140625 -8.363281 8.515625 -7.625 C 8.890625 -6.882812 9.078125 -6 9.078125 -4.96875 C 9.078125 -3.9375 8.882812 -3.050781 8.5 -2.3125 C 8.125 -1.570312 7.582031 -1 6.875 -0.59375 C 6.164062 -0.195312 5.304688 0 4.296875 0 Z M 2.59375 -1.3125 L 4.21875 -1.3125 C 4.976562 -1.3125 5.609375 -1.453125 6.109375 -1.734375 C 6.609375 -2.023438 6.976562 -2.441406 7.21875 -2.984375 C 7.46875 -3.523438 7.59375 -4.1875 7.59375 -4.96875 C 7.59375 -5.75 7.46875 -6.410156 7.21875 -6.953125 C 6.976562 -7.492188 6.613281 -7.90625 6.125 -8.1875 C 5.632812 -8.46875 5.03125 -8.609375 4.3125 -8.609375 L 2.59375 -8.609375 Z M 2.59375 -1.3125 "/></g></g></g><g fill="#1a08a7" fill-opacity="1"><g transform="translate(185.284496, 13.80861)"><g><path d="M 4.1875 0.15625 C 3.445312 0.15625 2.8125 0 2.28125 -0.3125 C 1.757812 -0.632812 1.351562 -1.082031 1.0625 -1.65625 C 0.78125 -2.226562 0.640625 -2.898438 0.640625 -3.671875 C 0.640625 -4.429688 0.78125 -5.101562 1.0625 -5.6875 C 1.351562 -6.269531 1.753906 -6.722656 2.265625 -7.046875 C 2.785156 -7.367188 3.390625 -7.53125 4.078125 -7.53125 C 4.492188 -7.53125 4.898438 -7.460938 5.296875 -7.328125 C 5.691406 -7.191406 6.046875 -6.972656 6.359375 -6.671875 C 6.671875 -6.378906 6.914062 -5.992188 7.09375 -5.515625 C 7.28125 -5.046875 7.375 -4.472656 7.375 -3.796875 L 7.375 -3.28125 L 1.453125 -3.28125 L 1.453125 -4.375 L 5.953125 -4.375 C 5.953125 -4.75 5.875 -5.082031 5.71875 -5.375 C 5.5625 -5.675781 5.34375 -5.910156 5.0625 -6.078125 C 4.789062 -6.253906 4.46875 -6.34375 4.09375 -6.34375 C 3.6875 -6.34375 3.332031 -6.242188 3.03125 -6.046875 C 2.726562 -5.847656 2.492188 -5.585938 2.328125 -5.265625 C 2.160156 -4.953125 2.078125 -4.609375 2.078125 -4.234375 L 2.078125 -3.390625 C 2.078125 -2.890625 2.164062 -2.460938 2.34375 -2.109375 C 2.519531 -1.765625 2.765625 -1.5 3.078125 -1.3125 C 3.398438 -1.132812 3.769531 -1.046875 4.1875 -1.046875 C 4.46875 -1.046875 4.71875 -1.082031 4.9375 -1.15625 C 5.164062 -1.238281 5.363281 -1.359375 5.53125 -1.515625 C 5.695312 -1.679688 5.820312 -1.878906 5.90625 -2.109375 L 7.28125 -1.859375 C 7.164062 -1.453125 6.96875 -1.097656 6.6875 -0.796875 C 6.40625 -0.492188 6.050781 -0.257812 5.625 -0.09375 C 5.207031 0.0703125 4.726562 0.15625 4.1875 0.15625 Z M 4.1875 0.15625 "/></g></g></g><g fill="#1a08a7" fill-opacity="1"><g transform="translate(193.297719, 13.80861)"><g><path d="M 4.1875 0.15625 C 3.445312 0.15625 2.8125 0 2.28125 -0.3125 C 1.757812 -0.632812 1.351562 -1.082031 1.0625 -1.65625 C 0.78125 -2.226562 0.640625 -2.898438 0.640625 -3.671875 C 0.640625 -4.429688 0.78125 -5.101562 1.0625 -5.6875 C 1.351562 -6.269531 1.753906 -6.722656 2.265625 -7.046875 C 2.785156 -7.367188 3.390625 -7.53125 4.078125 -7.53125 C 4.492188 -7.53125 4.898438 -7.460938 5.296875 -7.328125 C 5.691406 -7.191406 6.046875 -6.972656 6.359375 -6.671875 C 6.671875 -6.378906 6.914062 -5.992188 7.09375 -5.515625 C 7.28125 -5.046875 7.375 -4.472656 7.375 -3.796875 L 7.375 -3.28125 L 1.453125 -3.28125 L 1.453125 -4.375 L 5.953125 -4.375 C 5.953125 -4.75 5.875 -5.082031 5.71875 -5.375 C 5.5625 -5.675781 5.34375 -5.910156 5.0625 -6.078125 C 4.789062 -6.253906 4.46875 -6.34375 4.09375 -6.34375 C 3.6875 -6.34375 3.332031 -6.242188 3.03125 -6.046875 C 2.726562 -5.847656 2.492188 -5.585938 2.328125 -5.265625 C 2.160156 -4.953125 2.078125 -4.609375 2.078125 -4.234375 L 2.078125 -3.390625 C 2.078125 -2.890625 2.164062 -2.460938 2.34375 -2.109375 C 2.519531 -1.765625 2.765625 -1.5 3.078125 -1.3125 C 3.398438 -1.132812 3.769531 -1.046875 4.1875 -1.046875 C 4.46875 -1.046875 4.71875 -1.082031 4.9375 -1.15625 C 5.164062 -1.238281 5.363281 -1.359375 5.53125 -1.515625 C 5.695312 -1.679688 5.820312 -1.878906 5.90625 -2.109375 L 7.28125 -1.859375 C 7.164062 -1.453125 6.96875 -1.097656 6.6875 -0.796875 C 6.40625 -0.492188 6.050781 -0.257812 5.625 -0.09375 C 5.207031 0.0703125 4.726562 0.15625 4.1875 0.15625 Z M 4.1875 0.15625 "/></g></g></g><g fill="#1a08a7" fill-opacity="1"><g transform="translate(201.310942, 13.80861)"><g><path d="M 0.96875 2.796875 L 0.96875 -7.4375 L 2.390625 -7.4375 L 2.390625 -6.234375 L 2.515625 -6.234375 C 2.597656 -6.390625 2.71875 -6.566406 2.875 -6.765625 C 3.03125 -6.972656 3.25 -7.148438 3.53125 -7.296875 C 3.8125 -7.453125 4.179688 -7.53125 4.640625 -7.53125 C 5.242188 -7.53125 5.78125 -7.378906 6.25 -7.078125 C 6.71875 -6.773438 7.085938 -6.335938 7.359375 -5.765625 C 7.628906 -5.191406 7.765625 -4.503906 7.765625 -3.703125 C 7.765625 -2.898438 7.628906 -2.210938 7.359375 -1.640625 C 7.097656 -1.066406 6.734375 -0.625 6.265625 -0.3125 C 5.796875 -0.0078125 5.257812 0.140625 4.65625 0.140625 C 4.207031 0.140625 3.835938 0.0664062 3.546875 -0.078125 C 3.265625 -0.234375 3.039062 -0.410156 2.875 -0.609375 C 2.71875 -0.816406 2.597656 -1 2.515625 -1.15625 L 2.421875 -1.15625 L 2.421875 2.796875 Z M 2.390625 -3.71875 C 2.390625 -3.195312 2.460938 -2.738281 2.609375 -2.34375 C 2.765625 -1.945312 2.984375 -1.640625 3.265625 -1.421875 C 3.554688 -1.203125 3.910156 -1.09375 4.328125 -1.09375 C 4.765625 -1.09375 5.128906 -1.207031 5.421875 -1.4375 C 5.710938 -1.664062 5.929688 -1.976562 6.078125 -2.375 C 6.234375 -2.769531 6.3125 -3.21875 6.3125 -3.71875 C 6.3125 -4.207031 6.234375 -4.644531 6.078125 -5.03125 C 5.929688 -5.425781 5.710938 -5.738281 5.421875 -5.96875 C 5.128906 -6.195312 4.765625 -6.3125 4.328125 -6.3125 C 3.910156 -6.3125 3.554688 -6.203125 3.265625 -5.984375 C 2.984375 -5.765625 2.765625 -5.460938 2.609375 -5.078125 C 2.460938 -4.691406 2.390625 -4.238281 2.390625 -3.71875 Z M 2.390625 -3.71875 "/></g></g></g><g fill="#1a08a7" fill-opacity="1"><g transform="translate(209.731126, 13.80861)"><g><path d="M 4.1875 0.15625 C 3.445312 0.15625 2.8125 0 2.28125 -0.3125 C 1.757812 -0.632812 1.351562 -1.082031 1.0625 -1.65625 C 0.78125 -2.226562 0.640625 -2.898438 0.640625 -3.671875 C 0.640625 -4.429688 0.78125 -5.101562 1.0625 -5.6875 C 1.351562 -6.269531 1.753906 -6.722656 2.265625 -7.046875 C 2.785156 -7.367188 3.390625 -7.53125 4.078125 -7.53125 C 4.492188 -7.53125 4.898438 -7.460938 5.296875 -7.328125 C 5.691406 -7.191406 6.046875 -6.972656 6.359375 -6.671875 C 6.671875 -6.378906 6.914062 -5.992188 7.09375 -5.515625 C 7.28125 -5.046875 7.375 -4.472656 7.375 -3.796875 L 7.375 -3.28125 L 1.453125 -3.28125 L 1.453125 -4.375 L 5.953125 -4.375 C 5.953125 -4.75 5.875 -5.082031 5.71875 -5.375 C 5.5625 -5.675781 5.34375 -5.910156 5.0625 -6.078125 C 4.789062 -6.253906 4.46875 -6.34375 4.09375 -6.34375 C 3.6875 -6.34375 3.332031 -6.242188 3.03125 -6.046875 C 2.726562 -5.847656 2.492188 -5.585938 2.328125 -5.265625 C 2.160156 -4.953125 2.078125 -4.609375 2.078125 -4.234375 L 2.078125 -3.390625 C 2.078125 -2.890625 2.164062 -2.460938 2.34375 -2.109375 C 2.519531 -1.765625 2.765625 -1.5 3.078125 -1.3125 C 3.398438 -1.132812 3.769531 -1.046875 4.1875 -1.046875 C 4.46875 -1.046875 4.71875 -1.082031 4.9375 -1.15625 C 5.164062 -1.238281 5.363281 -1.359375 5.53125 -1.515625 C 5.695312 -1.679688 5.820312 -1.878906 5.90625 -2.109375 L 7.28125 -1.859375 C 7.164062 -1.453125 6.96875 -1.097656 6.6875 -0.796875 C 6.40625 -0.492188 6.050781 -0.257812 5.625 -0.09375 C 5.207031 0.0703125 4.726562 0.15625 4.1875 0.15625 Z M 4.1875 0.15625 "/></g></g></g><g fill="#1a08a7" fill-opacity="1"><g transform="translate(217.744348, 13.80861)"><g><path d="M 0.96875 0 L 0.96875 -7.4375 L 2.375 -7.4375 L 2.375 -6.265625 L 2.453125 -6.265625 C 2.585938 -6.660156 2.828125 -6.972656 3.171875 -7.203125 C 3.515625 -7.429688 3.90625 -7.546875 4.34375 -7.546875 C 4.425781 -7.546875 4.53125 -7.539062 4.65625 -7.53125 C 4.78125 -7.53125 4.878906 -7.523438 4.953125 -7.515625 L 4.953125 -6.125 C 4.898438 -6.144531 4.796875 -6.164062 4.640625 -6.1875 C 4.492188 -6.207031 4.347656 -6.21875 4.203125 -6.21875 C 3.859375 -6.21875 3.550781 -6.144531 3.28125 -6 C 3.019531 -5.851562 2.8125 -5.65625 2.65625 -5.40625 C 2.5 -5.15625 2.421875 -4.867188 2.421875 -4.546875 L 2.421875 0 Z M 0.96875 0 "/></g></g></g><g fill="#1a08a7" fill-opacity="1"><g transform="translate(222.986366, 13.80861)"><g/></g></g><g fill="#1a08a7" fill-opacity="1"><g transform="translate(226.600554, 13.80861)"><g><path d="M 0.96875 0 L 0.96875 -7.4375 L 2.421875 -7.4375 L 2.421875 0 Z M 1.703125 -8.59375 C 1.453125 -8.59375 1.238281 -8.675781 1.0625 -8.84375 C 0.882812 -9.007812 0.796875 -9.210938 0.796875 -9.453125 C 0.796875 -9.691406 0.882812 -9.894531 1.0625 -10.0625 C 1.238281 -10.226562 1.453125 -10.3125 1.703125 -10.3125 C 1.953125 -10.3125 2.164062 -10.226562 2.34375 -10.0625 C 2.53125 -9.894531 2.625 -9.691406 2.625 -9.453125 C 2.625 -9.210938 2.53125 -9.007812 2.34375 -8.84375 C 2.164062 -8.675781 1.953125 -8.59375 1.703125 -8.59375 Z M 1.703125 -8.59375 "/></g></g></g><g fill="#1a08a7" fill-opacity="1"><g transform="translate(229.99673, 13.80861)"><g><path d="M 2.421875 -4.421875 L 2.421875 0 L 0.96875 0 L 0.96875 -7.4375 L 2.359375 -7.4375 L 2.359375 -6.234375 L 2.453125 -6.234375 C 2.628906 -6.617188 2.898438 -6.929688 3.265625 -7.171875 C 3.628906 -7.410156 4.09375 -7.53125 4.65625 -7.53125 C 5.15625 -7.53125 5.59375 -7.425781 5.96875 -7.21875 C 6.351562 -7.007812 6.648438 -6.695312 6.859375 -6.28125 C 7.078125 -5.863281 7.1875 -5.347656 7.1875 -4.734375 L 7.1875 0 L 5.734375 0 L 5.734375 -4.5625 C 5.734375 -5.09375 5.59375 -5.507812 5.3125 -5.8125 C 5.03125 -6.125 4.644531 -6.28125 4.15625 -6.28125 C 3.820312 -6.28125 3.523438 -6.207031 3.265625 -6.0625 C 3.003906 -5.914062 2.796875 -5.703125 2.640625 -5.421875 C 2.492188 -5.148438 2.421875 -4.816406 2.421875 -4.421875 Z M 2.421875 -4.421875 "/></g></g></g><g fill="#1a08a7" fill-opacity="1"><g transform="translate(238.145611, 13.80861)"><g><path d="M 6.546875 -5.625 L 5.234375 -5.390625 C 5.179688 -5.554688 5.09375 -5.710938 4.96875 -5.859375 C 4.851562 -6.015625 4.695312 -6.140625 4.5 -6.234375 C 4.300781 -6.335938 4.050781 -6.390625 3.75 -6.390625 C 3.34375 -6.390625 3 -6.296875 2.71875 -6.109375 C 2.445312 -5.929688 2.3125 -5.695312 2.3125 -5.40625 C 2.3125 -5.15625 2.398438 -4.953125 2.578125 -4.796875 C 2.765625 -4.648438 3.066406 -4.53125 3.484375 -4.4375 L 4.65625 -4.171875 C 5.34375 -4.003906 5.851562 -3.753906 6.1875 -3.421875 C 6.519531 -3.097656 6.6875 -2.675781 6.6875 -2.15625 C 6.6875 -1.707031 6.554688 -1.304688 6.296875 -0.953125 C 6.046875 -0.609375 5.691406 -0.335938 5.234375 -0.140625 C 4.773438 0.0546875 4.25 0.15625 3.65625 0.15625 C 2.820312 0.15625 2.140625 -0.0195312 1.609375 -0.375 C 1.085938 -0.738281 0.765625 -1.25 0.640625 -1.90625 L 2.046875 -2.125 C 2.128906 -1.757812 2.304688 -1.484375 2.578125 -1.296875 C 2.847656 -1.109375 3.203125 -1.015625 3.640625 -1.015625 C 4.117188 -1.015625 4.5 -1.113281 4.78125 -1.3125 C 5.0625 -1.507812 5.203125 -1.753906 5.203125 -2.046875 C 5.203125 -2.273438 5.113281 -2.46875 4.9375 -2.625 C 4.769531 -2.789062 4.507812 -2.910156 4.15625 -2.984375 L 2.890625 -3.265625 C 2.203125 -3.421875 1.691406 -3.671875 1.359375 -4.015625 C 1.023438 -4.359375 0.859375 -4.796875 0.859375 -5.328125 C 0.859375 -5.765625 0.976562 -6.148438 1.21875 -6.484375 C 1.46875 -6.816406 1.804688 -7.070312 2.234375 -7.25 C 2.671875 -7.4375 3.171875 -7.53125 3.734375 -7.53125 C 4.535156 -7.53125 5.164062 -7.359375 5.625 -7.015625 C 6.09375 -6.671875 6.398438 -6.207031 6.546875 -5.625 Z M 6.546875 -5.625 "/></g></g></g><g fill="#1a08a7" fill-opacity="1"><g transform="translate(245.456339, 13.80861)"><g><path d="M 0.96875 0 L 0.96875 -7.4375 L 2.421875 -7.4375 L 2.421875 0 Z M 1.703125 -8.59375 C 1.453125 -8.59375 1.238281 -8.675781 1.0625 -8.84375 C 0.882812 -9.007812 0.796875 -9.210938 0.796875 -9.453125 C 0.796875 -9.691406 0.882812 -9.894531 1.0625 -10.0625 C 1.238281 -10.226562 1.453125 -10.3125 1.703125 -10.3125 C 1.953125 -10.3125 2.164062 -10.226562 2.34375 -10.0625 C 2.53125 -9.894531 2.625 -9.691406 2.625 -9.453125 C 2.625 -9.210938 2.53125 -9.007812 2.34375 -8.84375 C 2.164062 -8.675781 1.953125 -8.59375 1.703125 -8.59375 Z M 1.703125 -8.59375 "/></g></g></g><g fill="#1a08a7" fill-opacity="1"><g transform="translate(248.85253, 13.80861)"><g><path d="M 4.09375 2.9375 C 3.5 2.9375 2.988281 2.859375 2.5625 2.703125 C 2.144531 2.554688 1.800781 2.351562 1.53125 2.09375 C 1.257812 1.84375 1.0625 1.566406 0.9375 1.265625 L 2.171875 0.75 C 2.265625 0.882812 2.382812 1.03125 2.53125 1.1875 C 2.675781 1.351562 2.875 1.492188 3.125 1.609375 C 3.375 1.722656 3.703125 1.78125 4.109375 1.78125 C 4.660156 1.78125 5.113281 1.644531 5.46875 1.375 C 5.820312 1.113281 6 0.691406 6 0.109375 L 6 -1.359375 L 5.921875 -1.359375 C 5.828125 -1.203125 5.695312 -1.023438 5.53125 -0.828125 C 5.375 -0.628906 5.148438 -0.457031 4.859375 -0.3125 C 4.578125 -0.175781 4.210938 -0.109375 3.765625 -0.109375 C 3.171875 -0.109375 2.640625 -0.242188 2.171875 -0.515625 C 1.703125 -0.796875 1.332031 -1.207031 1.0625 -1.75 C 0.789062 -2.289062 0.65625 -2.957031 0.65625 -3.75 C 0.65625 -4.539062 0.785156 -5.21875 1.046875 -5.78125 C 1.316406 -6.34375 1.6875 -6.773438 2.15625 -7.078125 C 2.632812 -7.378906 3.171875 -7.53125 3.765625 -7.53125 C 4.234375 -7.53125 4.609375 -7.453125 4.890625 -7.296875 C 5.171875 -7.148438 5.390625 -6.972656 5.546875 -6.765625 C 5.710938 -6.566406 5.835938 -6.390625 5.921875 -6.234375 L 6.03125 -6.234375 L 6.03125 -7.4375 L 7.453125 -7.4375 L 7.453125 0.171875 C 7.453125 0.804688 7.300781 1.328125 7 1.734375 C 6.707031 2.148438 6.304688 2.453125 5.796875 2.640625 C 5.296875 2.835938 4.726562 2.9375 4.09375 2.9375 Z M 4.078125 -1.3125 C 4.492188 -1.3125 4.847656 -1.410156 5.140625 -1.609375 C 5.429688 -1.804688 5.648438 -2.085938 5.796875 -2.453125 C 5.941406 -2.816406 6.015625 -3.253906 6.015625 -3.765625 C 6.015625 -4.265625 5.941406 -4.703125 5.796875 -5.078125 C 5.648438 -5.460938 5.429688 -5.765625 5.140625 -5.984375 C 4.859375 -6.203125 4.503906 -6.3125 4.078125 -6.3125 C 3.640625 -6.3125 3.273438 -6.195312 2.984375 -5.96875 C 2.691406 -5.75 2.472656 -5.445312 2.328125 -5.0625 C 2.179688 -4.675781 2.109375 -4.242188 2.109375 -3.765625 C 2.109375 -3.273438 2.179688 -2.847656 2.328125 -2.484375 C 2.484375 -2.117188 2.707031 -1.832031 3 -1.625 C 3.289062 -1.414062 3.648438 -1.3125 4.078125 -1.3125 Z M 4.078125 -1.3125 "/></g></g></g><g fill="#1a08a7" fill-opacity="1"><g transform="translate(257.272699, 13.80861)"><g><path d="M 2.421875 -4.421875 L 2.421875 0 L 0.96875 0 L 0.96875 -9.921875 L 2.40625 -9.921875 L 2.40625 -6.234375 L 2.5 -6.234375 C 2.664062 -6.628906 2.925781 -6.941406 3.28125 -7.171875 C 3.644531 -7.410156 4.117188 -7.53125 4.703125 -7.53125 C 5.210938 -7.53125 5.65625 -7.425781 6.03125 -7.21875 C 6.414062 -7.007812 6.710938 -6.695312 6.921875 -6.28125 C 7.140625 -5.863281 7.25 -5.347656 7.25 -4.734375 L 7.25 0 L 5.796875 0 L 5.796875 -4.5625 C 5.796875 -5.101562 5.65625 -5.523438 5.375 -5.828125 C 5.09375 -6.128906 4.703125 -6.28125 4.203125 -6.28125 C 3.859375 -6.28125 3.550781 -6.207031 3.28125 -6.0625 C 3.007812 -5.914062 2.796875 -5.703125 2.640625 -5.421875 C 2.492188 -5.148438 2.421875 -4.816406 2.421875 -4.421875 Z M 2.421875 -4.421875 "/></g></g></g><g fill="#1a08a7" fill-opacity="1"><g transform="translate(265.484559, 13.80861)"><g><path d="M 4.453125 -7.4375 L 4.453125 -6.28125 L 0.375 -6.28125 L 0.375 -7.4375 Z M 1.46875 -9.21875 L 2.921875 -9.21875 L 2.921875 -2.1875 C 2.921875 -1.90625 2.960938 -1.691406 3.046875 -1.546875 C 3.128906 -1.410156 3.238281 -1.316406 3.375 -1.265625 C 3.507812 -1.210938 3.65625 -1.1875 3.8125 -1.1875 C 3.925781 -1.1875 4.023438 -1.191406 4.109375 -1.203125 C 4.203125 -1.222656 4.273438 -1.238281 4.328125 -1.25 L 4.578125 -0.0625 C 4.492188 -0.03125 4.375 0 4.21875 0.03125 C 4.0625 0.0703125 3.867188 0.09375 3.640625 0.09375 C 3.265625 0.101562 2.910156 0.0390625 2.578125 -0.09375 C 2.242188 -0.238281 1.972656 -0.460938 1.765625 -0.765625 C 1.566406 -1.066406 1.46875 -1.441406 1.46875 -1.890625 Z M 1.46875 -9.21875 "/></g></g></g><g fill="#1a08a7" fill-opacity="1"><g transform="translate(270.431014, 13.80861)"><g><path d="M 6.546875 -5.625 L 5.234375 -5.390625 C 5.179688 -5.554688 5.09375 -5.710938 4.96875 -5.859375 C 4.851562 -6.015625 4.695312 -6.140625 4.5 -6.234375 C 4.300781 -6.335938 4.050781 -6.390625 3.75 -6.390625 C 3.34375 -6.390625 3 -6.296875 2.71875 -6.109375 C 2.445312 -5.929688 2.3125 -5.695312 2.3125 -5.40625 C 2.3125 -5.15625 2.398438 -4.953125 2.578125 -4.796875 C 2.765625 -4.648438 3.066406 -4.53125 3.484375 -4.4375 L 4.65625 -4.171875 C 5.34375 -4.003906 5.851562 -3.753906 6.1875 -3.421875 C 6.519531 -3.097656 6.6875 -2.675781 6.6875 -2.15625 C 6.6875 -1.707031 6.554688 -1.304688 6.296875 -0.953125 C 6.046875 -0.609375 5.691406 -0.335938 5.234375 -0.140625 C 4.773438 0.0546875 4.25 0.15625 3.65625 0.15625 C 2.820312 0.15625 2.140625 -0.0195312 1.609375 -0.375 C 1.085938 -0.738281 0.765625 -1.25 0.640625 -1.90625 L 2.046875 -2.125 C 2.128906 -1.757812 2.304688 -1.484375 2.578125 -1.296875 C 2.847656 -1.109375 3.203125 -1.015625 3.640625 -1.015625 C 4.117188 -1.015625 4.5 -1.113281 4.78125 -1.3125 C 5.0625 -1.507812 5.203125 -1.753906 5.203125 -2.046875 C 5.203125 -2.273438 5.113281 -2.46875 4.9375 -2.625 C 4.769531 -2.789062 4.507812 -2.910156 4.15625 -2.984375 L 2.890625 -3.265625 C 2.203125 -3.421875 1.691406 -3.671875 1.359375 -4.015625 C 1.023438 -4.359375 0.859375 -4.796875 0.859375 -5.328125 C 0.859375 -5.765625 0.976562 -6.148438 1.21875 -6.484375 C 1.46875 -6.816406 1.804688 -7.070312 2.234375 -7.25 C 2.671875 -7.4375 3.171875 -7.53125 3.734375 -7.53125 C 4.535156 -7.53125 5.164062 -7.359375 5.625 -7.015625 C 6.09375 -6.671875 6.398438 -6.207031 6.546875 -5.625 Z M 6.546875 -5.625 "/></g></g></g><g fill="#1a08a7" fill-opacity="1"><g transform="translate(277.741742, 13.80861)"><g><path d="M 1.921875 0.09375 C 1.660156 0.09375 1.429688 0 1.234375 -0.1875 C 1.046875 -0.375 0.953125 -0.601562 0.953125 -0.875 C 0.953125 -1.144531 1.046875 -1.375 1.234375 -1.5625 C 1.429688 -1.75 1.660156 -1.84375 1.921875 -1.84375 C 2.191406 -1.84375 2.421875 -1.75 2.609375 -1.5625 C 2.796875 -1.375 2.890625 -1.144531 2.890625 -0.875 C 2.890625 -0.695312 2.84375 -0.535156 2.75 -0.390625 C 2.664062 -0.242188 2.550781 -0.125 2.40625 -0.03125 C 2.257812 0.0507812 2.097656 0.09375 1.921875 0.09375 Z M 1.921875 0.09375 "/></g></g></g></g></g></svg>